/* XPM */
static char *magick[] = {
/* columns rows colors chars-per-pixel */
"22 21 2 1",
"  c #333366",
". c white",
/* pixels */
"                      ",
" .................... ",
" .................... ",
" .................... ",
" ......           ... ",
" .....    ... ....... ",
" .....    ... ....... ",
" .....    ... ....... ",
" .....    ... ....... ",
" ......   ... ....... ",
" ........ ... ....... ",
" ........ ... ....... ",
" ........ ... ....... ",
" ........ ... ....... ",
" ........ ... ....... ",
" ........ ... ....... ",
" ........ ... ....... ",
" .................... ",
" .................... ",
" .................... ",
"                      "
};
