/* XPM */
static char *magick[] = {
/* columns rows colors chars-per-pixel */
"32 32 42 1",
"  c #333366",
". c #3186c3",
"X c #3288c7",
"o c #348dcc",
"O c #398fce",
"+ c #3c91ce",
"@ c #4395d0",
"# c #4c9ad2",
"$ c #539dd4",
"% c #57a0d5",
"& c #5da4d7",
"* c #63a6d8",
"= c #66a9d9",
"- c #6cacda",
"; c #71afdc",
": c #75b1dd",
"> c #7bb5de",
", s None c None",
"< c #83b9e0",
"1 c #8cbee2",
"2 c #8fc0e3",
"3 c #93c2e4",
"4 c #9ac6e6",
"5 c #9fc9e7",
"6 c #a4cce8",
"7 c #a9cfea",
"8 c #add0ea",
"9 c #b4d5ec",
"0 c #bcd9ee",
"q c #c1dcef",
"w c #c6dff1",
"e c #cce2f2",
"r c #d3e6f4",
"t c #d6e8f5",
"y c #ddecf6",
"u c #e1eef7",
"i c #e3eff8",
"p c #e6f1f9",
"a c #edf5fa",
"s c #f1f7fb",
"d c #f5f9fd",
"f c white",
/* pixels */
",,,,,,,,,,,,,,,,,,,,,,,,,,,,,,,,",
",,,,,,,,,,,,,,:>               ,",
",,,,,,,,,,,:=&$# fffffffffffff ,",
",,,,,,,,,-O.Xoo@ ffff     ffff ,",
",,,,,,,<@.ooOO@& fff fffff fff ,",
",,,,,,-ooOOO@@$* ff fff fff ff ,",
",,,,,#oo@$<7wert f ffff ffff f ,",
",,,,:.X$10tiaddd f ffff ffff f ,",
",,,>@X=7tsdddssd f ffff    f f ,",
",,,-+;0psautasss f fffffffff f ,",
",,>#*eaapr5<wpss f fffffffff f ,",
",,>*6appy5$O:was ff fffffff ff ,",
",5:1eppp6$oo@>es fff fffff fff ,",
",5<8ppe<#oOoo@;w ffff     ffff ,",
",63ei0:+ooooOoo; fffffffffffff ,",
",78tt1#oooooo@#$               ,",
",89tt63=OoooO+>49raaassayee09<:,",
",89ripp8#ooooO;wdaaasassdde0614,",
",87eiiy9#ooooOO-eaaaassssr47838,",
",86wiiie$Xooooo+<taaaassr4>9w88,",
",,59yiiy&XXooooo@>eaasp0:&2rr9,,",
",,87tiii1OXoooooo+>ras0-+&0pe7,,",
",,,6wiyi0*XXoooOoo+<ww:+%6py8,,,",
",,,89yyuy4#oooooooO+--@$4yaw8,,,",
",,,,7wyyie3#ooooOoOOO+;0aae9,,,,",
",,,,,7ryyyr6&+ooooO#=2waay9,,,,,",
",,,,,,8rpppt061<><38wtaay0,,,,,,",
",,,,,,,7etyppyttrtypaaye9,,,,,,,",
",,,,,,,,79wetyppppiyte09,,,,,,,,",
",,,,,,,,,77800weeee0998,,,,,,,,,",
",,,,,,,,,,,8766787688,,,,,,,,,,,",
",,,,,,,,,,,,,,,,,,,,,,,,,,,,,,,,"
};
