/* XPM */
static char *magick[] = {
/* columns rows colors chars-per-pixel */
"32 32 7 1",
"  c gray0",
". c #008080",
"X c cyan",
"o s None c None",
"O c #808080",
"+ c #c0c1c0",
"@ c white",
/* pixels */
"oooooooooooooooooooooooooooooooo",
"oooooooooooooooo.OOOOOOOOOOOoooo",
"ooooooooooooo...+O@@@@@@@@@O ooo",
"ooooooooooo..@@@@O@@@@@@@@@O@ oo",
"ooooX.ooo..@@+++@O@@@@@@@@@    o",
"oooo.. o.+@++++@+O@+  +@@@@@++ o",
"ooooo  .++++++X.XO@    @@@@@@+ o",
"oooooo.          O@  O @ @   + o",
"ooooo.@  ........O@+  +@@@@@@+ o",
"oooo.@. . .X.X.X.O@@@@@@@@@@@+ o",
"oooo.@. .. .X.X.XO@+  +@@@@@@+ o",
"ooo.@.. .X. .X.X.O@ @+ @@@@@@+ o",
"ooo.@.X ..X. .X.XO@ +O @ @   + o",
"oo.@... .X.X. .X.O@+  +@@@@@@+ o",
"oo.@..X ..X.X. .XO@@@@@@@@@@@+ o",
"oo.@... .X.X.X. .O++++++++++++ o",
"oo.@..X...X.X.X.XO             o",
"oo.@+..X.X.X.X.X.X.+@+OOO oooooo",
"ooo.@...X.X.X.X.X.+@+OOOO oooooo",
"ooo.+@...........@@OOOOO ooooooo",
"oooo.@@.......+@@OOOOOO oooooooo",
"oooo.O+@@@@@@@@OOOOOOO ooooooooo",
"ooooo..OOOOOOOOOOOOO  oooooooooo",
"ooooooo  OOOOOOOOO  Oooooooooooo",
"ooooooooo          +Oooooooooooo",
"oooooooooooooOO+++++Oooooooooooo",
"oooooooooooooO+@++++Oooooooooooo",
"oooooooooooOO++@++++OO ooooooooo",
"ooooooooooO+@@@++++++OO oooooooo",
"oooooooooooOO+@@@++OO  ooooooooo",
"ooooooooooooo        ooooooooooo",
"oooooooooooooooooooooooooooooooo"
};
