/* XPM */
static char *magick[] = {
/* columns rows colors chars-per-pixel */
"32 32 8 1",
"  c gray0",
". c #008080",
"X c cyan",
"o c #800000",
"O s None c None",
"+ c #808080",
"@ c #c0c1c0",
"# c white",
/* pixels */
"OOOOOOOOOOOOOOOOOOOOOOOOOOOOOOOO",
"OOOOOOOOOOOOOOOO.......OOOOOOOOO",
"OOOOOOOOOOOOO...@#ooo@@++OOOOOoO",
"OOOOOOOOOOO..#####oooo#@@+OOoo O",
"OOOOX.OOO..##@@@#@ oooo##@+oo OO",
"OOOO.. O.@#@@@@#@#@  ooo#@oo OOO",
"OOOOO  .@@@@@@X.X.X.X ooooo OOOO",
"OOOOOO.            X.X ooo  OOOO",
"OOOOO.#  ...........X.oooooOOOOO",
"OOOO.#. . .X.X.X.X.X.ooo  ooOOOO",
"OOOO.#. .. .X.X.X.X.ooo @# ooOOO",
"OOO.#.. .X. .X.X.X.ooo X@#+ oOOO",
"OOO.#.X ..X. .X.X.ooooX@#@+  oOO",
"OO.#... .X.X. .X.Xooo .@#@+ O OO",
"OO.#..X ..X.X. .X. o .@#@++ OOoO",
"OO.#... .X.X.X. .X@ .@#@++ OOO O",
"OO.#..X...X.X.X.X.X.@#@+++ OOOOO",
"OO.#@..X.X.X.X.X.X.@#@+++ OOOOOO",
"OOO.#...X.X.X.X.X.@#@++++ OOOOOO",
"OOO.@#...........##+++++ OOOOOOO",
"OOOO.##.......@##++++++ OOOOOOOO",
"OOOO.+@########+++++++ OOOOOOOOO",
"OOOOO..+++++++++++++  OOOOOOOOOO",
"OOOOOOO  +++++++++  +OOOOOOOOOOO",
"OOOOOOOOO          @+OOOOOOOOOOO",
"OOOOOOOOOOOOO++@@@@@+OOOOOOOOOOO",
"OOOOOOOOOOOOO+@#@@@@+OOOOOOOOOOO",
"OOOOOOOOOOO++@@#@@@@++ OOOOOOOOO",
"OOOOOOOOOO+@###@@@@@@++ OOOOOOOO",
"OOOOOOOOOOO++@###@@++  OOOOOOOOO",
"OOOOOOOOOOOOO        OOOOOOOOOOO",
"OOOOOOOOOOOOOOOOOOOOOOOOOOOOOOOO"
};
