/* XPM */
static char *magick[] = {
/* columns rows colors chars-per-pixel */
"32 32 9 1",
"  c gray0",
". c #000080",
"X c blue",
"o c #008080",
"O c cyan",
"+ s None c None",
"@ c #808080",
"# c #c0c0c0",
"$ c white",
/* pixels */
"++++++++++++++++++++++++++++++++",
"+++++++++++++oooooo++++++++.++++",
"+++++++++++Ooooooooo++++++X.++++",
"++++++++++OOooooooooXo++++X.++++",
"++++++++OOOooooooooXoXX++XX.++++",
"+++++++OOOoOooooooXoXoXo+XX.++++",
"++++++OOOoO oooooooXoXXXXXX.++++",
"++++++OOOOo  ++++ooXXoXXXXX.++++",
"+++++OOO+++ $ ++++++oXoXXXX.++++",
"+++++O+++++ $$ +++++++XXXXX.++++",
"++++O++++++ $$$ +++++XXXXXX.++++",
"++++O++++++ $$$$ ++++XXXXXX.++++",
"+++++++++++ $$$$$ ++XXXXXXX.++++",
"+++Oo++++++ $$$$$$ XXXXXXXX.++++",
"+++OOo+++++ $$$$$$$ ........++++",
"+++OOOo++++ $$$$$$$$ +++++++++++",
"+++OOOOo+++ $$$$$     +++++X++++",
"+++OOOOOo++ $$ $$ +++++++++X++++",
"+++OOOOOOoo $ + $$ +++++++XX++++",
"+++OOOOOOOO  ++ $$ ++++++XX@++++",
"+++OOOOOOOO Oo++ $$ ++++XX@+++++",
"+++OOOOOOOOOO+++ $$ ++++XX@+++++",
"+++OOOOOOOOo+++++ $$ ++XX@++++++",
"+++OOOOOOOoOo++++ $$ +XXX@++++++",
"+++OOOOOOoOooo++++  #XXX@+++++++",
"+++OOOOOoOoOooooooooXXXX@+++++++",
"+++OO++oOoOoOooooooXXXX@++++++++",
"+++O++++oooOooooooXXXX@+++++++++",
"+++++++++oooooooXXXX@@++++++++++",
"++++++++++oooooXXX@@++++++++++++",
"++++++++++++oooXX@++++++++++++++",
"++++++++++++++++++++++++++++++++"
};
