/* XPM */
static char *magick[] = {
/* columns rows colors chars-per-pixel */
"32 32 74 1",
"  c #1e4c6c",
". c #1f4f71",
"X c #26506f",
"o c #215275",
"O c #22567b",
"+ c #23587e",
"@ c #385f7a",
"# c #255c85",
"$ c #265f89",
"% c #27618c",
"& c #28648f",
"* c #286692",
"= c #2a6997",
"- c #2c6e9e",
"; c #396a8e",
": c #3a6b90",
"> c #2c6fa0",
", c #2e73a5",
"< c #2f77ab",
"1 c #3076a9",
"2 c #327aad",
"3 c #3c76a0",
"4 c #3a7eaf",
"5 c #327eb5",
"6 c #436881",
"7 c #3482ba",
"8 c #3b82b6",
"9 c #3586c1",
"0 c #3688c4",
"q c #3b8dc9",
"w c #4882ad",
"e c #5985a5",
"r c #418fc7",
"t c #4392cc",
"y c #4a96ce",
"u c #4e99cf",
"i c #5295c5",
"p c #509acf",
"a c #559dd1",
"s c #599fd2",
"d c #5da1d3",
"f c #64a6d5",
"g c #6baad7",
"h c #6facd8",
"j c #73aed9",
"k c #77b0da",
"l c #7cb3db",
"z s None c None",
"x c #82b7dd",
"c c #85b9de",
"v c #89bade",
"b c #8dbde0",
"n c #90bfe1",
"m c #94c1e1",
"M c #9bc5e4",
"N c #a3cae6",
"B c #a9cde7",
"V c #accfe8",
"C c #afd1e9",
"Z c #b4d3ea",
"A c #bad7ec",
"S c #bed9ed",
"D c #c2dcee",
"F c #c7dff0",
"G c #cbe1f1",
"H c #d3e5f3",
"J c #d7e8f4",
"K c #dceaf5",
"L c #e2eef7",
"P c #e6f0f8",
"I c #ebf3f9",
"U c #f0f6fb",
"Y c #f4f8fc",
"T c #f9fbfd",
/* pixels */
"zzzzzzzzzzzzze%8zzzzz7zzzzzzzzzz",
"zzzzzzzzzzzz*797qzz87g90zzzzzzzz",
"zzzzzzzzzzz*70qtq27fgjkkhzzzzzzz",
"zzzzzzzzzz*70qyussfgjlkMAtzzzzzz",
"zzzzzzzzz=79tttsdfgklllGNx7zzzzz",
"zzzzzz$%-9007qlpsglllvvBMka=zzzz",
"zzzzz$27977xJKGHDlllvvmmMg2 zzzz",
"zzzz$5797uKGNmbvcBvcmmMMNZDtzzzz",
"zzzz*797gUBmclgdduhMmMMNNCZGdzzz",
"zzzz-99dINmxgst9*% pMMNBZZAGAqzz",
"zzzz-t7INmlfy9%.zzzzpBCCZADHAv5z",
"zzz>t9BAmlft5ozzzzzpBCCZSDGHZbd;",
"z3,tytIMxgy5.zzzzzzpCCASDGGACbd%",
"z,tyulDnkp7ozzzzzzzdCASGHANmbxd+",
"wtyppMZcfq+zzzzzzzaCASGGZMmlhdp+",
",ysfdNBlp5XzzzzzzdZASGHSMmkfyq2.",
"yudggcCjt#zzzzzzfZASFGJCmkdt7O6z",
"zydhkhAkq.zzzzzgZADGGHLNcfq<.zzz",
"zz9kllcb7@zzzzdZSDGGJKUBla7.zzzz",
"zzqlxbmMv2zfsdZSDGHHLLULly+zzzzz",
"zqlcbmmMNZsZZADFGHHLPITTMyozzzzz",
"zqvvmmMMNCZZADFGHJLPITYCClOzzzzz",
"ztbmmMMBCCZADGGJPUYUTYCNmc-zzzzz",
"ztbMCZBCCAADGHJSCBSYYBNmlf57zzzz",
"zzdGZNCZASDGJHZMmcxbCNblgt7 zzzz",
"zzzumcgGDGGHJZNbkgdsgvxfy7ozzzzz",
"zzzz0fqBHGJKGNmkdt7%$=7y5.zzzzzz",
"zzzzz,>9IKKPZmlfq<ozzzz# zzzzzzz",
"zzzzzzzzlVVVBvgu5.zzzzzzzzzzzzzz",
"zzzzzzzzziccvcd0ozzzzzzzzzzzzzzz",
"zzzzzzzzzz<sddp&zzzzzzzzzzzzzzzz",
"zzzzzzzzzzz;O%%Ozzzzzzzzzzzzzzzz"
};
