/* XPM */
static char *magick[] = {
/* columns rows colors chars-per-pixel */
"32 32 10 1",
"  c gray0",
". c #000080",
"X c blue",
"o c #008080",
"O c cyan",
"+ c #800000",
"@ s None c None",
"# c #808080",
"$ c #c0c0c0",
"% c white",
/* pixels */
"@@@@@@@@@@@@@@@@@@@@@@@@@@@@@@@@",
"@@@@@@@@@@@@@oooooo@@@@@@@@.@@@@",
"@@@@@@@@@@@Ooooooooo@@@@@@X.@@@@",
"@@@@@@@@@@OOooooooooXo@@@@X.@@@@",
"@@@@@@@@OOOooooooooXoXX@@XX.@@@@",
"@@@@@@@OOOoOooooooXoXoXo@XX.@@@@",
"@@@@@@OOOoOooooooooXoXXXXXX.@@@@",
"@@@@@@OOOOo@@@@@@ooXXoXXXXX.@@@@",
"@@@@@OOO@@@@@@@@@@@@oXoXXXX.@@@@",
"@@@@@O@@@@............. XXX.@@@@",
"@@@@O@@@@.XXXXXXXXXXXX. XXX.@@@@",
"@@@@O@@@@.............# XXX.@@@@",
"@@@@@@@@@#%%$%%$%%$%%$# XXX.@@@@",
"@@@Oo@@@@#%%$%%$%%$%%$# XXX.@@@@",
"@@@OOo@@@#$$++++$$$$$$# ....@@@@",
"@@@OOOo@@#%%+%%+%%$%%$# @@@@@@@@",
"@@@OOOOo@#%%+%%+%%$%%$# @@@X@@@@",
"@@@OOOOOo#$$++++$$$$$$# @@@X@@@@",
"@@@OOOOOO#%%$%%$%%$%%$# @@XX@@@@",
"@@@OOOOOO#%%$%%$%%$%%$  @XX#@@@@",
"@@@OOOOO#$$$$$$$$$$$##  XX#@@@@@",
"@@@OOOOO              # XX#@@@@@",
"@@@OOOOOO#$$$$$$$$$$$$# X#@@@@@@",
"@@@OOOOOO               X#@@@@@@",
"@@@OOOOOOoOooo@@@@@@@XXX#@@@@@@@",
"@@@OOOOOoOoOooooooooXXXX#@@@@@@@",
"@@@OO@@oOoOoOooooooXXXX#@@@@@@@@",
"@@@O@@@@oooOooooooXXXX#@@@@@@@@@",
"@@@@@@@@@oooooooXXXX##@@@@@@@@@@",
"@@@@@@@@@@oooooXXX##@@@@@@@@@@@@",
"@@@@@@@@@@@@oooXX#@@@@@@@@@@@@@@",
"@@@@@@@@@@@@@@@@@@@@@@@@@@@@@@@@"
};
