/* XPM */
static char *magick[] = {
/* columns rows colors chars-per-pixel */
"32 32 38 1",
"  c #333366",
". c #3186c3",
"X c #3288c7",
"o c #358dcc",
"O c #398fce",
"+ c #3b91ce",
"@ c #4395d0",
"# c #4c9ad2",
"$ c #529dd4",
"% c #57a0d5",
"& c #5da4d7",
"* c #63a7d8",
"= c #67a9d9",
"- c #6cacda",
"; c #75b1dd",
": c #7ab4de",
"> s None c None",
", c #83b9e0",
"< c #8cbee3",
"1 c #94c3e5",
"2 c #9cc7e6",
"3 c #9fc9e7",
"4 c #a3cbe8",
"5 c #a9cfea",
"6 c #add1eb",
"7 c #b3d4ec",
"8 c #bddaef",
"9 c #c1dcef",
"0 c #c6dff1",
"q c #cde2f2",
"w c #d3e6f4",
"e c #d6e8f5",
"r c #ddecf6",
"t c #e6f1f9",
"y c #edf5fb",
"u c #f1f7fb",
"i c #f5f9fd",
"p c white",
/* pixels */
">>>>>>>>>>>>>>>>>>>>>>>>>>>>>>>>",
">>>>>>>>>>>>>>:::::           >>",
">>>>>>>>>>>:=&$##$ pppppppppp >>",
">>>>>>>>>=+.Xoo@#% pp       p >>",
">>>>>>>,@.oo++@&;, pp ppppp p >>",
">>>>>>-oooO++@#=== pp p ppp p >>",
">>>>>#oo+%:6qqweeq pp ppppp p >>",
">>>>:.X$18etyuiiiu pp ppppp p >>",
">>>:@X-5eyiiiuuiii pp       p >>",
">>>-+-8tuyreyuuuiui ppppppppp >>",
">>:#*qyytw4,8tuuuii           >>",
">>:&4yttr2$O;qyuuu pppppppppp >>",
">3;<qttt4$oo@:quuy pp p p p pp >",
">3,6ttq,#Oooo@-0iuu pp p p p pp ",
">41              yuy pppppppppp ",
">6 ppppppppppppp eyuy           ",
">6 pp          p eyyyuuy    7,;>",
">6 pp pppppppp p yyyuyuui    <2>",
">6 pp p  ppppp p yyyyuuuye    6>",
">6 pp p pppppp p eyyy          >",
">> pp pppppppp p :qyyu          ",
">> pp pppppppp p +:wyu8    tq6>>",
">> pp pppppppp p o+,0q;+    6>>>",
">> pp          p OO+-=@#1    >>>",
">>> pppppppppppp              >>",
">>>                            >",
">> ppppppppppppp ,169eyyr8>>>>>>",
">> pppppppppppppp rtyyrq7>>>>>>>",
">>  p p p p p p pp req87>>>>>>>>",
">>> pp p p p p p p 8776>>>>>>>>>",
">>>  ppppppppppppp 66>>>>>>>>>>>",
">>>>               >>>>>>>>>>>>>"
};
