/* XPM */
static char * small_preview_page_icon_xpm[] = {
"16 16 3 1",
" 	c None",
".	c #333366",
"+	c #FFFFFF",
" ...............",
" .+++++++++++++.",
" .+++...+++++++.",
" .++.+++.++++++.",
" .+.+++++.+++++.",
" .+.+++++.+++++.",
" .+.+++++.+++++.",
" .++.+++..+++++.",
" .+++......++++.",
" .+++++++...+++.",
" .++++++++...++.",
" .+++++++++...+.",
" .++++++++++..+.",
" .+++++++++++++.",
" ...............",
"                "};
