/* XPM */
static char *small_sync_icon_xpm[] = {
/* columns rows colors chars-per-pixel */
"16 16 16 1",
"  s None c None",
"U c gray0",
". c #800000",
"X c #008000",
"o c #808000",
"O c #000080",
"+ c #800080",
"@ c #008080",
"# c #C0C0C0",
"$ c #808080",
"% c red",
"& c green",
"* c yellow",
"= c blue",
"- c magenta",
"; c cyan",
/* pixels */
"     %UUUU      ",
"   %UU     ==   ",
"  %U      ====  ",
" %U    = ==UU== ",
" %U    ===U  U= ",
"%U     ==U   U=U",
"%U     ====   =U",
"%U            =U",
"%U            =U",
"%U   %%%U     =U",
"%%U   %%U     =U",
" %U  %%UU    =U ",
" %%U%%U U    =U ",
"  %%%U      =U  ",
"   %U     =UU   ",
"      UUUUU     "
};
