/* XPM */
static char *application_64x64_xpm[] = {
/* columns rows colors chars-per-pixel */
"64 64 6 1",
"  s None c None",
"s c black",
"D c green",
"X c red",
"o c yellow",
"O c white",
/* pixels */
"                        XX                                      ",
"                        XX                                      ",
"                        XX                                      ",
"                        XX                                      ",
"                        XX                                      ",
"                        XX                                      ",
"                      XX                                        ",
"                      XX                                        ",
"          XX          XX    XX                                  ",
"          XX          XX    XX                                  ",
"            XX        XX  XX                                    ",
"            XX        XX  XX                                    ",
"              XX      XXXX                                      ",
"              XX      XXXX                                      ",
"                XX    XXXX                                      ",
"                XX    XXXX                                      ",
"                  XX  XX                                        ",
"                  XX  XX                                        ",
"                  XX  XX  ssssss                                ",
"                  XX  XX  ssssss                                ",
"                    XXXXssssOOOOssss                            ",
"                    XXXXssssOOOOssss                            ",
"                  ssssssOOOOOOOOOOOOssss                        ",
"                  ssssssOOOOOOOOOOOOssss                        ",
"              ssssoossOOOOOOOOOOOOOOssOOssss                    ",
"              ssssoossOOOOOOOOOOOOOOssOOssss                    ",
"            ssoooossOOOOOOOOOOOOXXOOOOssOOOOss                  ",
"            ssoooossOOOOOOOOOOOOXXOOOOssOOOOss                  ",
"          ssoooooossOOOOOOOOOOOOXXOOOOssOOXXss                  ",
"          ssoooooossOOOOOOOOOOOOXXOOOOssOOXXss                  ",
"          ssoooooossOOOOOOOOOOOOOOOOOOssOOOOss                  ",
"          ssoooooossOOOOOOOOOOOOOOOOOOssOOOOss                  ",
"        ssoooooooossOOOOOOOOOOOOOOOOOOssOOOOss                  ",
"        ssoooooooossOOOOOOOOOOOOOOOOOOssOOOOss                  ",
"        ssoooooooooossOOOOOOOOOOOOOOssssssssssss                ",
"        ssoooooooooossOOOOOOOOOOOOOOssssssssssss                ",
"    ssssoooooooossoossOOOOOOOOOOOOssoOoOoOoOoOoOss              ",
"    ssssoooooooossoossOOOOOOOOOOOOssOoOoOoOoOoOoss              ",
"ssssoooooooooooossoooossssssssssssoOoOoOoOoOoOoOoOss            ",
"ssssoooooooooooossoooossssssssssssOoOoOoOoOoOoOoOoss            ",
"oooooooooooooooooossoooooooooossoOoOoOoOoOoOssoOssoOssss        ",
"oooooooooooooooooossoooooooooossOoOoOoOoOoOossOossOossss        ",
"ssssoooooooooooooooossoooooossoOoOoOoOoOoOoOoOoOoOoOoOoOss      ",
"ssssoooooooooooooooossoooooossOoOoOoOoOoOoOoOoOoOoOoOoOoss      ",
"    ssssssoooooooooooooooooossoOoOssoOoOoOoOoOoOoOoOoOoOoOss    ",
"    ssssssoooooooooooooooooossOoOossOoOoOoOoOoOoOoOoOoOoOoss    ",
"          ssssoooooooooooooossoOoOssoOoOoOoOoOoOoOoOoOoOoOoOss  ",
"          ssssoooooooooooooossOoOossOoOoOoOoOoOoOoOoOoOoOoOoss  ",
"              ssssoooooooooossoOoOssssssssssssssssssssssssssss  ",
"              ssssoooooooooossOoOossssssssssssssssssssssssssss  ",
"                  ssssoooooooossoOoOoOoOoOoOoOoOoOss            ",
"                  ssssoooooooossOoOoOoOoOoOoOoOoOoss            ",
"                      ssssssoooossoOoOoOoOoOoOssss              ",
"                      ssssssoooossOoOoOoOoOoOossss              ",
"                            ssssssssssssssssss                  ",
"                            ssssssssssssssssss                  ",
"                                                                ",
"                                                                ",
"                                                                ",
"                                                                ",
"                                                                ",
"                                                                ",
"                                                                ",
"                                                                "
};
