/* XPM */
static char  *application_32x32_xpm[] = {
/* columns rows colors chars-per-pixel */
"32 32 16 1",
" 	s None	c None",
"X c black",
"Y c #008000",
"o c #808000",
"% c #000080",
"+ c #800080",
"@ c #008080",
"# c #CCCCCC",
"$ c #808080",
"O c red",
"& c green",
"* c yellow",
"= c blue",
": c magenta",
"; c cyan",
"- c white",
/* pixels */
"            O                   ",
"            O                   ",
"            O                   ",
"           O                    ",
"     O     O  O                 ",
"      O    O O                  ",
"       O   OO                   ",
"        O  OO                   ",
"         O O                    ",
"         O O XXX                ",
"          OOXX--XX              ",
"         XXX------XX            ",
"       XX*X-------X-XX          ",
"      X**X------O--X--X         ",
"     X***X------O--X-OX         ",
"     X***X---------X--X         ",
"    X****X---------X--X         ",
"    X*****X-------XXXXXX        ",
"  XX****X*X------X-*-*-*X       ",
"XX******X**XXXXXX-*-*-*-*X      ",
"*********X*****X-*-*-*X*X*XX    ",
"XX********X***X-*-*-*-*-*-*-X   ",
"  XXX*********X*-X-*-*-*-*-*-X  ",
"     XX*******X-*X*-*-*-*-*-*-X ",
"       XX*****X*-XXXXXXXXXXXXXX ",
"         XX****X*-*-*-*-*X      ",
"           XXX**X*-*-*-XX       ",
"              XXXXXXXXX         ",
"                                ",
"                                ",
"                                ",
"                                "
};
