/* XPM */
static char *16x16[] =
{
/* width height ncolors chars_per_pixel */
"16 16 115 2",
/* colors */
"AA c #FFFFFFFFFFFF",
"BA c #F5F5F6F6F9F9",
"CA c #E6E6ECECF5F5",
"DA c #F9F9FBFBFEFE",
"EA c #C3C3D4D4EAEA",
"FA c #E5E5EBEBF3F3",
"GA c #68689D9DDBDB",
"HA c #A4A4C0C0E2E2",
"IA c #B6B6CBCBE4E4",
"JA c #C1C1D5D5EEEE",
"KA c #C6C6D6D6EAEA",
"LA c #CDCDDDDDF0F0",
"MA c #C6C6D5D5E8E8",
"NA c #E2E2EAEAF4F4",
"OA c #E6E6EDEDF6F6",
"PA c #59599797DBDB",
"AB c #6262A0A0E5E5",
"BB c #6868A4A4E6E6",
"CB c #6767A3A3E3E3",
"DB c #65659D9DDBDB",
"EB c #6F6FACACEDED",
"FB c #6C6CA7A7E8E8",
"GB c #7070ADADEEEE",
"HB c #68689E9EDDDD",
"IB c #7373B0B0F2F2",
"JB c #68689E9EDCDC",
"KB c #69699E9EDADA",
"LB c #7575AEAEECEC",
"MB c #7676AFAFEDED",
"NB c #7171A3A3DADA",
"OB c #8383B4B4E9E9",
"PB c #8A8ABDBDF4F4",
"AC c #7E7EABABDEDE",
"BC c #8080ABABDCDC",
"CC c #9494C0C0F0F0",
"DC c #9292BCBCE9E9",
"EC c #9292B8B8E4E4",
"FC c #9393BABAE4E4",
"GC c #9090B3B3DBDB",
"HC c #9A9ABBBBE0E0",
"IC c #A2A2C1C1E4E4",
"JC c #ACACCCCCF0F0",
"KC c #A5A5C4C4E6E6",
"LC c #AFAFCECEF0F0",
"MC c #ADADCCCCEEEE",
"NC c #ACACC8C8E8E8",
"OC c #B9B9D3D3EFEF",
"PC c #BBBBD3D3EDED",
"AD c #BFBFD7D7F1F1",
"BD c #C1C1D9D9F3F3",
"CD c #C6C6DADAF1F1",
"DD c #CECEE0E0F5F5",
"ED c #CACADCDCF0F0",
"FD c #D9D9E8E8F8F8",
"GD c #DBDBE9E9F9F9",
"HD c #D2D2DFDFEEEE",
"ID c #D8D8E5E5F4F4",
"JD c #D3D3E0E0EFEF",
"KD c #E5E5F1F1FEFE",
"LD c #E0E0EAEAF5F5",
"MD c #6969A8A8EBEB",
"ND c #6D6DACACEFEF",
"OD c #6E6EABABEBEB",
"PD c #8383BFBFFBFB",
"AE c #7979ACACE1E1",
"BE c #8989C1C1FCFC",
"CE c #8787BEBEF6F6",
"DE c #8585B9B9EFEF",
"EE c #8A8ABEBEF4F4",
"FE c #8282B4B4E5E5",
"GE c #8B8BBDBDF0F0",
"HE c #9595C5C5F7F7",
"IE c #9494C3C3F5F5",
"JE c #8E8EBCBCECEC",
"KE c #9F9FC9C9F4F4",
"LE c #A6A6CBCBF1F1",
"ME c #B4B4D3D3F4F4",
"NE c #B6B6D5D5F6F6",
"OE c #C8C8DDDDF2F2",
"PE c #CFCFDFDFF0F0",
"AF c #EAEAF2F2FAFA",
"BF c #EEEEF5F5FCFC",
"CF c #FAFAFBFBFCFC",
"DF c #8383BBBBF1F1",
"EF c #7C7CB1B1E4E4",
"FF c #8D8DC6C6FBFB",
"GF c #8B8BC0C0F2F2",
"HF c #9191BFBFEBEB",
"IF c #A6A6CFCFF5F5",
"JF c #B8B8DCDCFCFC",
"KF c #BDBDD6D6EEEE",
"LF c #C9C9E1E1F8F8",
"MF c #E8E8F3F3FDFD",
"NF c #9292CBCBFDFD",
"OF c #9393CACAF7F7",
"PF c #9393C7C7F3F3",
"AG c #9696CACAF5F5",
"BG c #9A9ACECEFAFA",
"CG c #A5A5D3D3F9F9",
"DG c #F1F1F8F8FEFE",
"EG c #F1F1F7F7FCFC",
"FG c #C6C6E4E4FBFB",
"GG c #C6C6E4E4FAFA",
"HG c #B7B7DEDEFAFA",
"IG c #C9C9E5E5F9F9",
"JG c #33339999CCCC",
"KG c #F4F4FAFAFDFD",
"LG c #F7F7FBFBFDFD",
"MG c #F6F6F8F8F9F9",
"NG c #CECEEEEEFDFD",
"OG c #FFFFFFFFFEFE",
"PG c #FFFFFDFDFDFD",
"AH c #FFFFFEFEFEFE",
"BH c #FDFDFCFCFCFC",
"CH c #FEFEFEFEFEFE",
/* pixels */
"JGJGJGJGJGJGJGJGJGJGJGJGJGJGJGJG",
"JGCHCHCHCHCHCHCHCHCHCHCHCHCHCHJG",
"JGCHCHCHCHAACFGCAEFEHCFAAACHCHJG",
"JGCHAAAAAAAALDABCGNGGFGAHDAACHJG",
"JGCHKAEAFAAAAFGBLCAADGIEHBCACHJG",
"JGCHPAPFEFHAMGKEOBIANABFMBECCHJG",
"JGCHGEIGFGLBBCNCCEFBKCAALEBBCHJG",
"JGCHLFADAAKDPBKBDCFFHFJACCMDCHJG",
"JGCHDAJCJDMAPEHEJBKFJFAGBGMECHJG",
"JGCHAALADBDENBEDEEACBAKGEGOGCHJG",
"JGCHCHFCIBBENDPCMFODICAAOGOGCHJG",
"JGCHBHJEPDNFDFIDAANECBOAAACHCHJG",
"JGCHAHGDHGGGFDMCCDOEEBOCAACHCHJG",
"JGCHCHOGPGOGAALGBDIFOFDDAACHCHJG",
"JGCHCHCHCHCHCHCHCHCHCHCHCHCHCHJG",
"JGJGJGJGJGJGJGJGJGJGJGJGJGJGJGJG",
};
