/* XPM */
static char *64x64[] =
{
/* width height ncolors chars_per_pixel */
"64 64 254 2",
/* colors */
"AA c #FFFFFFFFFFFF",
"BA c #33339999CCCC",
"CA c #F9F9F9F9FDFD",
"DA c #FBFBFBFBFDFD",
"EA c #FEFEFEFEFFFF",
"FA c #FDFDFDFDFEFE",
"GA c #BBBBC1C1DDDD",
"HA c #C4C4CCCCE9E9",
"IA c #B6B6C1C1D7D7",
"JA c #D2D2D5D5DBDB",
"KA c #8585A7A7E2E2",
"LA c #DDDDE2E2EBEB",
"MA c #9393AAAAD1D1",
"NA c #A9A9B9B9D3D3",
"OA c #B8B8C1C1D0D0",
"PA c #3D3D6D6DB5B5",
"AB c #BBBBD1D1F2F2",
"BB c #C0C0CCCCDEDE",
"CB c #F4F4F6F6F9F9",
"DB c #03034B4BA8A8",
"EB c #282859599C9C",
"FB c #66668B8BBBBB",
"GB c #82829F9FC7C7",
"HB c #9F9FAEAEC2C2",
"IB c #B2B2BDBDCCCC",
"JB c #E2E2E7E7EEEE",
"KB c #EEEEF1F1F5F5",
"LB c #09095353AEAE",
"MB c #0B0B5858B5B5",
"NB c #0A0A4D4DA1A1",
"OB c #13135D5DB7B7",
"PB c #16166464C1C1",
"AC c #23236C6CC3C3",
"BC c #23235D5DA5A5",
"CC c #2A2A6464ADAD",
"DC c #3A3A6B6BAAAA",
"EC c #4A4A7878B3B3",
"FC c #46467171A6A6",
"GC c #6B6BA5A5EAEA",
"HC c #58588383B7B7",
"IC c #7878B0B0F4F4",
"JC c #6F6F9A9AD1D1",
"KC c #8F8FC0C0FAFA",
"LC c #7E7EA4A4D3D3",
"MC c #8585ACACDDDD",
"NC c #7A7A9A9AC2C2",
"OC c #8888A6A6CACA",
"PC c #9F9FBBBBDEDE",
"AD c #BABAC9C9DCDC",
"BD c #D3D3DCDCE7E7",
"CD c #17175A5AA8A8",
"DD c #1C1C6666BCBC",
"ED c #22226969B9B9",
"FD c #2C2C7575C9C9",
"GD c #2D2D6F6FBBBB",
"HD c #34347D7DCFCF",
"ID c #3B3B8585D5D5",
"JD c #38387B7BC6C6",
"KD c #3E3E8181CCCC",
"LD c #43438989D6D6",
"MD c #42428686D3D3",
"ND c #42427D7DBEBE",
"OD c #49498989D1D1",
"PD c #46468484C8C8",
"AE c #4E4E9393DDDD",
"BE c #4D4D8E8ED7D7",
"CE c #56569A9AE3E3",
"DE c #52529090D3D3",
"EE c #5F5FA1A1E8E8",
"FE c #5A5A9595D8D8",
"GE c #52528888C6C6",
"HE c #63639D9DDCDC",
"IE c #6969A4A4E5E5",
"JE c #5E5E9292CBCB",
"KE c #6D6DA7A7E7E7",
"LE c #7474B1B1F3F3",
"ME c #7A7AB7B7FAFA",
"NE c #6F6FA7A7E4E4",
"OE c #7D7DBABAFCFC",
"PE c #7A7AB5B5F5F5",
"AF c #7676AEAEEAEA",
"BF c #7474AAAAE4E4",
"CF c #8080BBBBFAFA",
"DF c #8080B9B9F6F6",
"EF c #7E7EB5B5F1F1",
"FF c #8181B9B9F5F5",
"GF c #7373A5A5DBDB",
"HF c #68689494C4C4",
"IF c #8282B9B9F4F4",
"JF c #8181B7B7F2F2",
"KF c #8888C0C0FDFD",
"LF c #8484BBBBF6F6",
"MF c #8585BABAF6F6",
"NF c #8888BFBFFAFA",
"OF c #8888BEBEF9F9",
"PF c #8787BDBDF7F7",
"AG c #8787BCBCF7F7",
"BG c #8888BDBDF7F7",
"CG c #8787BBBBF6F6",
"DG c #8686BBBBF5F5",
"EG c #8585BABAF3F3",
"FG c #7979A8A8DCDC",
"GG c #8A8AC0C0FAFA",
"HG c #8D8DC2C2FDFD",
"IG c #8B8BBFBFFAFA",
"JG c #7474A0A0D0D0",
"KG c #8C8CBFBFF9F9",
"LG c #8B8BBFBFF8F8",
"MG c #7979A5A5D8D8",
"NG c #8D8DC0C0FAFA",
"OG c #8D8DC0C0F9F9",
"PG c #7F7FADADE1E1",
"AH c #8E8EC2C2FAFA",
"BH c #9090C3C3FCFC",
"CH c #8F8FC1C1F9F9",
"DH c #9191C2C2FAFA",
"EH c #9494C6C6FEFE",
"FH c #8B8BB4B4E0E0",
"GH c #72729393B8B8",
"HH c #73738C8CA9A9",
"IH c #9999B5B5D4D4",
"JH c #9A9AB2B2CCCC",
"KH c #A9A9B7B7C7C7",
"LH c #CBCBD7D7E4E4",
"MH c #44448C8CD8D8",
"NH c #47479292E0E0",
"OH c #52529797E0E0",
"PH c #57579F9FE7E7",
"AI c #5B5B9D9DE2E2",
"BI c #6464A6A6E9E9",
"CI c #6363A3A3E7E7",
"DI c #60609E9EE0E0",
"EI c #6B6BAFAFF4F4",
"FI c #6767A8A8EBEB",
"GI c #6969A9A9EAEA",
"HI c #6C6CACACF0F0",
"II c #6F6FB1B1F4F4",
"JI c #6B6BAAAAECEC",
"KI c #6C6CABABEBEB",
"LI c #6F6FAEAEEDED",
"MI c #7575B5B5F8F8",
"NI c #6F6FABABEAEA",
"OI c #7272B0B0EFEF",
"PI c #7373AEAEECEC",
"AJ c #7777B2B2F0F0",
"BJ c #7F7FBDBDFEFE",
"CJ c #7979B4B4F2F2",
"DJ c #8282BFBFFFFF",
"EJ c #7C7CB7B7F4F4",
"FJ c #7A7AB2B2EDED",
"GJ c #8585C1C1FFFF",
"HJ c #8484C0C0FDFD",
"IJ c #7F7FB8B8F3F3",
"JJ c #8383BDBDF9F9",
"KJ c #8181BABAF6F6",
"LJ c #8080BABAF4F4",
"MJ c #8282BBBBF6F6",
"NJ c #8888C2C2FFFF",
"OJ c #7D7DB2B2EAEA",
"PJ c #8989C4C4FFFF",
"AK c #8484BBBBF5F5",
"BK c #8383BABAF4F4",
"CK c #8787BFBFFAFA",
"DK c #8787BFBFF9F9",
"EK c #8282B8B8F1F1",
"FK c #8181B5B5ECEC",
"GK c #8C8CC6C6FFFF",
"HK c #8686BCBCF1F1",
"IK c #8D8DC4C4FBFB",
"JK c #8D8DC3C3FBFB",
"KK c #8989BDBDF3F3",
"LK c #9090C5C5FCFC",
"MK c #8989BCBCEFEF",
"NK c #8282B0B0E0E0",
"OK c #9393C6C6FCFC",
"PK c #9595C8C8FDFD",
"AL c #9696CACAFEFE",
"BL c #9696C8C8FDFD",
"CL c #7F7FAAAAD6D6",
"DL c #9797C9C9FEFE",
"EL c #9797CACAFEFE",
"FL c #9898CACAFEFE",
"GL c #9090C0C0F0F0",
"HL c #9A9ACCCCFFFF",
"IL c #9393C3C3F3F3",
"JL c #9A9AC9C9FAFA",
"KL c #9898C6C6F4F4",
"LL c #8F8FB9B9E5E5",
"ML c #9F9FCDCDFAFA",
"NL c #9A9AC3C3ECEC",
"OL c #A5A5CECEF6F6",
"PL c #82829F9FBDBD",
"AM c #ACACD1D1F5F5",
"BM c #9595ADADC5C5",
"CM c #AFAFC6C6DDDD",
"DM c #B6B6CDCDE4E4",
"EM c #C3C3D1D1DFDF",
"FM c #F6F6F8F8FAFA",
"GM c #F2F2F4F4F6F6",
"HM c #F9F9FAFAFBFB",
"IM c #8181BDBDF7F7",
"JM c #8F8FC8C8FFFF",
"KM c #8484BABAECEC",
"LM c #9292CACAFFFF",
"MM c #9494CBCBFFFF",
"NM c #9696CDCDFFFF",
"OM c #9595CBCBFCFC",
"PM c #9595C9C9FBFB",
"AN c #9393C8C8F8F8",
"BN c #9898CDCDFFFF",
"CN c #9B9BCFCFFFFF",
"DN c #9E9ED1D1FFFF",
"EN c #9D9DC9C9F3F3",
"FN c #A3A3CFCFF9F9",
"GN c #9595BEBEE4E4",
"HN c #ACACD3D3F8F8",
"IN c #B0B0D6D6F9F9",
"JN c #B4B4D7D7F8F8",
"KN c #B6B6D9D9FAFA",
"LN c #B9B9DBDBFBFB",
"MN c #ADADC1C1D3D3",
"NN c #C6C6D9D9EAEA",
"ON c #BABAC4C4CDCD",
"PN c #C2C2CBCBD3D3",
"AO c #6969A4A4D7D7",
"BO c #9393CDCDFFFF",
"CO c #9898CFCFFFFF",
"DO c #9A9AD2D2FFFF",
"EO c #B8B8C8C8D6D6",
"FO c #E6E6ECECF1F1",
"GO c #2F2F7272A6A6",
"HO c #7A7AAAAACECE",
"IO c #8585B2B2D5D5",
"JO c #A0A0D5D5FFFF",
"KO c #9E9ED1D1F7F7",
"LO c #A5A5D9D9FFFF",
"MO c #A4A4CFCFEEEE",
"NO c #B3B3CBCBDBDB",
"OO c #A8A8DDDDFFFF",
"PO c #A4A4D5D5F3F3",
"AP c #8888BDBDDCDC",
"BP c #ACACE2E2FFFF",
"CP c #B0B0E5E5FFFF",
"DP c #A5A5C8C8D9D9",
"EP c #A5A5DADAF0F0",
"FP c #A6A6D7D7ECEC",
"GP c #A7A7E0E0F6F6",
"HP c #AFAFE8E8FEFE",
"IP c #B5B5EBEBFFFF",
"JP c #ECECEFEFF0F0",
"KP c #B9B9EFEFFFFF",
"LP c #BCBCF2F2FFFF",
"MP c #FCFCFDFDFDFD",
"NP c #FEFEFEFEFEFE",
/* pixels */
"BABABABABABABABABABABABABABABABABABABABABABABABABABABABABABABABABABABABABABABABABABABABABABABABABABABABABABABABABABABABABABABABA",
"BABABABABABABABABABABABABABABABABABABABABABABABABABABABABABABABABABABABABABABABABABABABABABABABABABABABABABABABABABABABABABABABA",
"BABAAAAAAAAAAAAAAAAAAAAAAAAAAAAAAAAAAAAAAAAAAAAAAAAAAAAAAAAAAAAAAAAAAAAAAAAAAAAAAAAAAAAAAAAAAAAAAAAAAAAAAAAAAAAAAAAAAAAAAAAABABA",
"BABAAAAAAAAAAAAAAAAAAAAAAAAAAAAAAAAAAAAAAAAAAAAAAAAAAAAAAAAAAAAAAAAAAAAAAAAAAAAAAAAAAAAAAAAAAAAAAAAAAAAAAAAAAAAAAAAAAAAAAAAABABA",
"BABAAAAAAAAAAAAAAAAAAAAAAAAAAAAAAAAAAAAAAAAAAAAAAAAAAAAAAAAAAAAAAAAAAAAAAAAAAAAAAAAAAAAAAAAAAAAAAAAAAAAAAAAAAAAAAAAAAAAAAAAABABA",
"BABAAAAAAAAAAAAAAAAAAAAAAAAAAAAAAAAAAAAAAAAAAAAAAAAAAAAAAAAAAALHNCDCECHCHCHCGHJHLAAAAAAAAAAAAAAAAAAAAAAAAAAAAAAAAAAAAAAAAAAABABA",
"BABAAAAAAAAAAAAAAAAAAAAAAAAAAAAAAAAAAAAAAAAAAAAAAAAAAAAAAAKBHCNBCCMGOLJNKNOLFHGEBCFCMNDAAAAAAAAAAAAAAAAAAAAAAAAAAAAAAAAAAAAABABA",
"BABAAAAAAAAAAAAAAAAAAAAAAAAAAAAAAAAAAAAAAAAAAAAAAAAAAAAAFODCLBPDENLNHNENKLENOLINNLFECDDCNAEAAAAAAAAAAAAAAAAAAAAAAAAAAAAAAAAABABA",
"BABAAAAAAAAAAAAAAAAAAAAAAAAAAAAAAAAAAAAAAAAAAAAAAAAAAAAAFBMBKDKMFNOLHKIFLFLFBKEGILFNGLPDNBHCBDAAAAAAAAAAAAAAAAAAAAAAAAAAAAAABABA",
"BABAAAAAAAAAAAAAAAAAAAAAAAAAAAAAAAAAAAAAAAAAAAAAAAAAAAEMMBHDAIFJEFEKBHDNLOLOJOFLJKAKHKILNEDDNBBMAAAAAAAAAAAAAAAAAAAAAAAAAAAABABA",
"BABAAAAAAAAAAAAAAAAAAAAAAAAAAAAAAAAAAAAAAAAAAAAAAAAANPHFFDOHPIJFLFDKOOKPLPLPLPIPBPJOLKAKHKOJJDDBFBKBAAAAAAAAAAAAAAAAAAAAAAAABABA",
"BABAAAAAAAAAAAAAAAAAAAAAAAAAAAAAAAAAAAAAAAAAAAAAAAAAHMNDAEGIEJKGGGGGIPHPFPFPEPHPKPKPCPJONGJFFKODDBECFOAAAAAAAAAAAAAAAAAAAAAABABA",
"BABAAAAAAAAAAAAAAAAAAAAAAAAAAAAAAAAAAAAAAAAAAAAAAAAAGMJDCICJBGKGEJHIGFADKBFMFOLHPCOJBOJOJODLDGFJBEMBDCJBAAAAAAAAAAAAAAAAAAAABABA",
"BABAAAAAAAAAAAAAAAAAAAAAAAAAAAAAAAAAAAAAAAAAAAAAAAAAJPKDFIIJNGLFLIAEKHNPAAAAAAAAAALAMAAFGKCNHLBGFJDEOBDCLAAAAAAAAAAAAAAAAAAABABA",
"BABAAAAAAAAAAAAAAAAAAAAAAAAAAAAAAAAAAAAAAAAAAAAAAAAAGMODGIKJKCDFGIMDKBAAAAAAAAAAAAAAAAEMFGDJNMCNBGFKAIOBFCGMAAAAAAAAAAAAAAAABABA",
"BABAAAAAAAAAAAAAAAAAAAAAAAAAAAAAAAAAAAAAAAAAAAAAAAAACADEBIDFKCFFFIODFMAAAAAAAAAAAAAAAAAAFOLCMELMCNBGFKFEMBHCAAAAAAAAAAAAAAAABABA",
"BABAAAAAAAAAAAGMEMOABBLADAAAAAAAAAAAAAAAAAAAAAAAAAAAAAJGBIIJKCLFJIKDFOAAAAAAAAAAAAAAAAAAAAFMGBMELMBNMFFKBELBBMAAAAAAAAAAAAAABABA",
"BABAAAAAAAAAMNEBCDGEJEECFCPLLHFAAAAAAAAAAAAAAAAAAAAAAAIHEECJIGBGOIMHADAAAAAAAAAAAAAAAAAAAAAADAAPICMMPKJFAFHDLBBDAAAAAAAAAAAABABA",
"BABAAAAAAABBDBOBGFJNJNLNNLGECDDCDPDAAAAAAAAAAAAAAAAAAABDAIPEBGKGCJPHGHAAAAAAAAAAAAAAAAAAAAAAAAHMHOOELMKGEFIEACECAAAAAAAAAAAABABA",
"BABAAAAAAAHCPBLDGLINOLKLOLHNNLJECDPANAMPAAAAAAAAAAAAAAEAJGMIAGKGLFFIGDFOAAAAAAAAAAAAAAAAAAAAAAAAFOJCHJGGBGEFAEOBHBAAAAAAAAAABABA",
"BABAAAAAAAGDMHAIPIMKHKLFBKEGGLFNGLPDNBECBDAAAAAAAAAAAAAANAHIKFLGNGCJFDGHNPAACBKBFMAAAAAAAAAAAAAAEAGABICFAGLGNIHDCCFMAAAAAAAABABA",
"BABAAAAAAAHDCEKIEFJFOKJOJOBNJKLFKKKLOJGDNBNCCBAAAAAAAAAAJPJEMICJPFAGIENDGBFBECCCEBNCCAAAAAAAAAAAAAAAKAIICJNGDGAIDDNAAAAAAAAABABA",
"BABAAAAAAAGECEKIEJKGOOLPLPIPBPJOLKLFKKMKDELBDCEMAAAAAAAANPNAPHBIOILFKLAMMGFHNLNKEDDBNCAAAAAAAAAAAAAALAFEHILFKCAJIDECMPAAAAAABABA",
"BABAAAAAEANCOHGIPELGCPHPGPHPLPKPCPJOIKIFKKNEEDNBBMNPAAAAAAHMHFCEGIEJAKOLKNKNKNOLFEACEDGMAAAAAAAAAAAAAANCBICJKCPFEEDDJAAAAAAABABA",
"BABAAAAAAANAEIMJAGLEIOLHBDEMIHKMCOLOLOHLBGEKOJKDDBHCKBAAAAAAPNLDEEOIDFKKHNAMKLEFAIMHFDFOEAAAAAAAAAAAAAEOAEOILGKGAJIDMAAAAAAABABA",
"BABAAAAAAABDPIBNLGCEDMEAAAAAAABDIHAFGKCNCNBHIFFKDELBDCBDAACBJEEEJJIKAHAGHKEKEFAJKIPHPDKBAAAAAAAAAAAAAAGMDEJILFOGEJCEHFAAAAAABABA",
"BABAAAAAAAFALCDOOKCENNAAAAAAAAAAAALHLCPEJMCNALDGEKHEOBCDEOEAMAKEGJNMCNLKMJPFLGEJKIOHHFNPAAAAAAAAAAAAAAHMGEFIFFKCFFFIGEAAAAAABABA",
"BABAAAAAAAAAKHGKJOBIMNAAAAAAAAAAAAAAFMIHIEGJNMHLGGEFNEEDNBJHAAEOHEBJMMCOLKIGBGAJBINHBMAAAAAAAAAAAAAAAAHMPDGIFFKCFFGIODAAAAAABABA",
"BABAAAAAAAAACBFGBPIMGBAAAAAAAAAAAAAAAAAAEMGFOEMMCNAHJFAFFDDBOCAANOCIOEMMBNBHGGIGCJBIGDNCJBAAAAAAAAAAAAMNMHLILFKCDFGIBEAAAAAABABA",
"BABAAAAAAAAAAAMNCOOONDKBAAAAAAAAAAAAAAAAAAFOLCMIJMCNOKIJOJKDDBLCNPNNKEOEMMELDLJODLKGBFNDCCPLLHGMHMGMADCCAIIJIGOFCJCIDEAAAAAABABA",
"BABAAAAAAAAANPGMCLIPDIOCAAAAAAAAAAAAAAAAAAAAFMMAIIPJBNPKJFOJPDLBHHEAHAEEOEJMDNIPBPDNJLAMOLLLMGHFFBFBMGNLLGOFLGEJKICEJEAAAAAABABA",
"BABAAAAAAAAAAAAAPNOMANJDJPAAAAAAAAAAAAAAAAAAAAAANAGCNJBNPKIFFKMDLBHHAACMFEOEMMBPKPIPOMEGILHNKNKNJNKNKNOLOFHGOGKJLEPHGBAAAAAABABA",
"BABAAAAAAAAAAAAAEAOCJOCIHHAAAAAAAAAAAAAAAAAAAAAAEANANINJCOELIFFKLDLBGBAADPBIDJANBPKPBPELOFBKKKILENKLGLIFEHHLBNGKMIOHGAAAAAAABABA",
"BABAAAAAAAAAAAAAAAJBFKDNKDBBAAAAAAAAAAAAAAAAAAAAAAAAEMHEGJBNFLIFOJMDDBIONPJHIOLHIOJJNMJOLOCNLKGGAGAGNFALOOLOCNNJEINCDAAAAAAABABA",
"BABAAAAAAAAAAAAAAANPMNOKMJECCBAAAAAAAAJBNANALAAAAAAAAAIAGCGJBNALBKOJKDLBIHNPJBNPCBMNPGJJDOOOBPBPLOLOLOCPIPLOGKMIJCFOAAAAAAAABABA",
"BABAAAAAAAAAAAAAAANPNPAPDNDIGHAAAAKBGHBCJEJEBCFBFOAAAAAAABAOGJCODLIFAFJDDBIANPAAAAAACBMNMCEKDOHPKPLPKPIPLOJMLELCJBAAAAAAAAAABABA",
"BABAAAAAAAAAAAAAAAAAAAJPIODOPDONBDCCCDPGJNJNFHCDBCHAAAAAAAPNIEGJBNBLJFAFFDCDJAAAAAAAAAAADABDCMIHGNPOPOENFHIHLHNPAAAAAAAAAAAABABA",
"BABAAAAAAAAAAAAAAAAAAAAAHANEBEBCHCFGNLKNJNININBFOBOBIBAAAANPIAKEPJCNOKEFIEACCCJBAAAAAAAAAANPAAEAFMKBKBJPFMAAAAAAAAAAAAAAAAAABABA",
"BABAAAAAAAAAAAAAAAAAAAAAAAKHIDPBGFKNINKLMKMKILILIEDDLBPNAAAAAAIBGCGKCNDHEFDIPBFCDAAAAAAAAAAAAAAAAAEAAAAAAAAAAAAAAAAAAAAAAAAABABA",
"BABAAAAAAAAAAAAAAAAAAAAAAAONIDMDHEEKJFEFLJFFIJEFFJDEPBBCLAAAAAAABMLEJMCNBGFJBELBMAAAAAAAAAAAAAAAAAAAAAAAAAAAAAAAAAAAAAAAAAAABABA",
"BABAAAAAAAAAAAAAAAAAAAAAJABCCEBIPIEFAKDKNFNFDKLFEFKELDPBHCNPAAAAAAOCLELMCNCGPIMDOBHAAAAAAAAAAAAAAAAAAAAAAAAAAAAAAAAAAAAAAAAABABA",
"BABAAAAAAAAAAAAAAAAAAAHMDCPBFICJJFNFNFNFNFDKCKNFNGJFCIIDOBJAAAAAAAFAHOMEMMALJFNIACGOFMAAAAAAAAAAAAAAAAAAAAAAAAAAAAAAAAAAAAAABABA",
"BABAAAAAAAAAAAAAAAAAAAMNOBLDOILFIGDKDKDKDKDKNFDKNGBGAJAIHDOCAAAAAAAAFOJCHJBNLKEFAIPBPLAAAAAAAAAAAAAAAAAAAAAAAAAAAAAAAAAAAAAABABA",
"BABAAAAAAAAAAAAAAAAANPECHDEEPEIGGGDKDKDKDKOFNFDKNGAGCJJINHOCAAAAAAAAAALHCIPJALLGFJMDLBBBAAAAAAAAAAAAAAAAAAAAAAAAAAAAAAAAAAAABABA",
"BABAAAAAAAAAAAAAAAAALAEDOHLIDFKGNFDKDKDKDKCKDKNFKGKJPEIIOHEMAAAAAAAAAAAAKHIIJMCHCGKEFDFCNPAAAAAAAAAAAAAAAAAAAAAAAAAAAAAAAAAABABA",
"BABAAAAAAAAAAAAAAAAANOHDCIOIAKNGDKDKDKDKDKDKDKGGKCEJLIEIGHMPAAAAAAAAAAAAFANCBJHGKGJFOHOBKHAAAAAAAAAAAAAAAAAAAAAAAAAAAAAAAAAABABA",
"BABAAAAAAAAAAAAAAAAAPCIDCIOILFGGDKDKDKNFDKDKGGEHALEJBIHEJAAAAAAAAAAAAAAANPJAHEDJOFOGPIHDDCFMAAAAAAAAAAAAAAAAAAAAAAAAAAAAAAAABABA",
"BABAAAAAAAAAAAAAAAAAMNLDCIOIMFIGDKDKDKCKGGJKDLBNLMHIBEPNAAAAAAAAAAAAAAAAAANPHBEIEJIGBGAIPBNAAAAAAAAAAAAAAAAAAAAAAAAAAAAAAAAABABA",
"BABAAAAAAAAAAAAAAAAALHMHFIDFLGEHBHHGBHEHELDNOOLOBOIIPDLHAAAAAAAAAAAAAAAAAAAACBAOHIFFKCCJIDPACAAAAAAAAAAAAAAAAAAAAAAAAAAAAAAABABA",
"BABAAAAAAAAAAAAAAAAAGMJEEIKFNMDNDNDNDNLOBPCPIPIPKOOMIIGDJHAAAAAAAAAAAAAAAAAANPMNEEAJKGBGEEDDBBAAAAAAAAAAAAAAAAAAAAAAAAAAAAAABABA",
"BABAAAAAAAAAAAAAAAAAEAKHEEBJALOOIPIPIPKPBPCODJHEBBBBEGGKFEFBFOAAAAAAAAAAAAAAAAJPDEJILFNGAJIDNCAAAAAAAAAAAAAAAAAAAAAAAAAAAAAABABA",
"BABAAAAAAAAAAAAAAAAAAAMPIHHIPJJOIPKPIPOOBOPECLLHAAAALHFHBNFJGENAAAAAAAAAAAAAAAAAJGEEIJOGLFPHECMPAAAAAAAAAAAAAAAAAAAAAAAAAAAABABA",
"BABAAAAAAAAAAAAAAAAAAAAAMPCMNKKKLOOOJOMKFHDMCBAAAAAAAAFOGNJMLKFEFBEMAAAAAAAAAAAANCEECJNGPFKIJDJBAAAAAAAAAAAAAAAAAAAAAAAAAAAABABA",
"BABAAAAAAAAAAAAAAAAAAAAAAAAAFMBDBBLHLHFONPNPAAAAAAAAAANPAAIAFKALPFGEHFBBCBAAAAGMGEBIIJKCAGLIMDEMEAAAAAAAAAAAAAAAAAAAAAAAAAAABABA",
"BABAAAAAAAAAAAAAAAAAAAAAAAAAAAAAAAFAFAAAAAAAAAAAAAAAAAAAAAAALAFHAJHJEFGFLCOCPLLCFJGGOKBHKJFILDDMAAAAAAAAAAAAAAAAAAAAAAAAAAAABABA",
"BABAAAAAAAAAAAAAAAAAAAAAAAAAAAAAAAAAAAAAAAAAAAAAAAAAAAAAAAAAAANPADMGOIHJPMMLFNOLLOBPLOCNHGHIMHLHAAAAAAAAAAAAAAAAAAAAAAAAAAAABABA",
"BABAAAAAAAAAAAAAAAAAAAAAAAAAAAAAAAAAAAAAAAAAAAAAAAAAAAAAAAAAAAAAAAFMNAMGMENJLKBHBPLPIPJOGKIIJEGMAAAAAAAAAAAAAAAAAAAAAAAAAAAABABA",
"BABAAAAAAAAAAAAAAAAAAAAAAAAAAAAAAAAAAAAAAAAAAAAAAAAAAAAAAAAAAAAAAAAAAAGMDMKALJNMHPKPHPJONJIEDPNPAAAAAAAAAAAAAAAAAAAAAAAAAAAABABA",
"BABAAAAAAAAAAAAAAAAAAAAAAAAAAAAAAAAAAAAAAAAAAAAAAAAAAAAAAAAAAAAAAAAAAAAAAADABDCMPCNLMONLFHBBAAAAAAAAAAAAAAAAAAAAAAAAAAAAAAAABABA",
"BABAAAAAAAAAAAAAAAAAAAAAAAAAAAAAAAAAAAAAAAAAAAAAAAAAAAAAAAAAAAAAAAAAAAAAAAAAAAAAAANPAAAAAAAAAAAAAAAAAAAAAAAAAAAAAAAAAAAAAAAABABA",
"BABAAAAAAAAAAAAAAAAAAAAAAAAAAAAAAAAAAAAAAAAAAAAAAAAAAAAAAAAAAAAAAAAAAAAAAAAAAAAAAAAAAAAAAAAAAAAAAAAAAAAAAAAAAAAAAAAAAAAAAAAABABA",
"BABAAAAAAAAAAAAAAAAAAAAAAAAAAAAAAAAAAAAAAAAAAAAAAAAAAAAAAAAAAAAAAAAAAAAAAAAAAAAAAAAAAAAAAAAAAAAAAAAAAAAAAAAAAAAAAAAAAAAAAAAABABA",
"BABABABABABABABABABABABABABABABABABABABABABABABABABABABABABABABABABABABABABABABABABABABABABABABABABABABABABABABABABABABABABABABA",
"BABABABABABABABABABABABABABABABABABABABABABABABABABABABABABABABABABABABABABABABABABABABABABABABABABABABABABABABABABABABABABABABA",
};
