/* XPM */
static char *magick[] = {
/* columns rows colors chars-per-pixel */
"16 16 3 1",
"  s None c None",
". c #333366",
"X c white",
/* pixels */
" ...............",
" .XXXXXXXXXXXXX.",
" .X....XXXXXXXX.",
" .X.XX.X......X.",
" .X.XX.XXXXXXXX.",
" .X.XX.X......X.",
" .X.XX.XXXXXXXX.",
" .X.XX.X......X.",
" .X.XX.XXXXXXXX.",
" .X.XX.X......X.",
" .X.XX.XXXXXXXX.",
" .X.XX.X......X.",
" .X....XXXXXXXX.",
" .XXXXXXXXXXXXX.",
" ...............",
"                "
};
