/* XPM */
static char *magick[] = {
/* columns rows colors chars-per-pixel */
"16 16 3 1",
"  s None c None",
". c #333366",
"X c white",
/* pixels */
" ...............",
" .XXXXXXXXXXXXX.",
" .XXXXX...XXXXX.",
" .XXXXX...XXXXX.",
" .XXXXX...XXXXX.",
" .XXXXX...XXXXX.",
" .XXXXX...XXXXX.",
" .XXXXX...XXXXX.",
" .XXXXX...XXXXX.",
" .XXX.......XXX.",
" .XXXX.....XXXX.",
" .XXXXX...XXXXX.",
" .XXXXXX.XXXXXX.",
" .XXXXXXXXXXXXX.",
" ...............",
"                "
};
