/* XPM */
static char *magick[] = {
/* columns rows colors chars-per-pixel */
"16 16 3 1",
"  s None c None",
". c #333366",
"X c white",
/* pixels */
" ...............",
" .XXXXXXXXXXXXX.",
" .XXXXXX.XXXXXX.",
" .XXXXX...XXXXX.",
" .XXXX.....XXXX.",
" .XXX.......XXX.",
" .XXXXX...XXXXX.",
" .XXXXX...XXXXX.",
" .XXXXX...XXXXX.",
" .XXXXX...XXXXX.",
" .XXXXX...XXXXX.",
" .XXXXX...XXXXX.",
" .XXXXX...XXXXX.",
" .XXXXXXXXXXXXX.",
" ...............",
"                "
};
