/* XPM */
static char *magick[] = {
/* columns rows colors chars-per-pixel */
"16 16 3 1",
"  s None c None",
". c #333366",
"X c white",
/* pixels */
" ...............",
" .XXXXXXXXXXXXX.",
" .XXXXXX.XXXXXX.",
" .XXXXX..XXXXXX.",
" .XXXXX...XXXXX.",
" .XXXX....XXXXX.",
" .XXXX.X...XXXX.",
" .XXX..XX..XXXX.",
" .XXX.XXX...XXX.",
" .XX........XXX.",
" .XX.XXXXX...XX.",
" .XX.XXXXXX..XX.",
" .X...XXXX....X.",
" .XXXXXXXXXXXXX.",
" ...............",
"                "
};
