/* XPM */
static char *magick[] = {
/* columns rows colors chars-per-pixel */
"16 15 3 1",
"  c #333366",
". s None c None",
"X c white",
/* pixels */
"...  ...........",
"...  ...........",
"...  ...... ....",
"        .. X ...",
"        . XXX ..",
"...  ... XXXXX .",
"...  .. XXXXX ..",
"...  . XXXXX ...",
"..... XXXXX ....",
".... XXXXX .....",
"... XXXXX ......",
"..    XX .......",
"..... X ........",
".....  .........",
"..... .........."
};
