/* XPM */
static char *magick[] = {
/* columns rows colors chars-per-pixel */
"16 16 3 1",
"  c #333366",
". s None c None",
"X c white",
/* pixels */
"................",
"..          ....",
".. XXXXXXXX  ...",
".. XXXXXXXX   ..",
".. X      XXX ..",
".. XXXXXXXXXX ..",
".. X        X ..",
".. XXXXXXXXXX ..",
".. X        X ..",
".. XXXXXXXXXX ..",
".. X        X ..",
".. XXXXXXXXXX ..",
".. X        X ..",
".. XXXXXXXXXX ..",
".. XXXXXXXXXX ..",
"..            .."
};
