/* XPM */
static char *32x32[] =
{
/* width height ncolors chars_per_pixel */
"32 32 252 2",
/* colors */
"AA c #FEFEFEFEFEFE",
"BA c #33339999CCCC",
"CA c #FBFBFBFBFCFC",
"DA c #D8D8DCDCF5F5",
"EA c #D2D2D4D4E0E0",
"FA c #EBEBEDEDF3F3",
"GA c #F5F5F6F6F9F9",
"HA c #9595ABABE1E1",
"IA c #84849E9ECBCB",
"JA c #A8A8B2B2C5C5",
"KA c #D3D3DBDBE9E9",
"LA c #CCCCD2D2DDDD",
"MA c #D5D5D9D9E0E0",
"NA c #E8E8ECECF3F3",
"OA c #C3C3CFCFE3E3",
"PA c #D6D6D9D9DEDE",
"AB c #69698A8ABABA",
"BB c #9595ABABCBCB",
"CB c #A1A1B5B5D2D2",
"DB c #9595A4A4BBBB",
"EB c #C1C1CACAD8D8",
"FB c #E5E5E9E9EFEF",
"GB c #E1E1E5E5EBEB",
"HB c #F1F1F3F3F6F6",
"IB c #EBEBEDEDF0F0",
"JB c #42427777C2C2",
"KB c #6D6D9696CECE",
"LB c #69698F8FC2C2",
"MB c #8383A0A0C6C6",
"NB c #9F9FBCBCE3E3",
"OB c #9898B4B4D9D9",
"PB c #8B8BA2A2C1C1",
"AC c #E3E3E9E9F1F1",
"BC c #27276B6BBBBB",
"CC c #33337373C3C3",
"DC c #39397A7AC7C7",
"EC c #38387171B6B6",
"FC c #41418181CECE",
"GC c #6D6DA6A6E9E9",
"HC c #62629393CDCD",
"IC c #5A5A8585BBBB",
"JC c #7171A4A4E0E0",
"KC c #6B6B9999CFCF",
"LC c #7C7CB0B0EEEE",
"MC c #64648E8EC0C0",
"NC c #62628888B6B6",
"OC c #8080AFAFE6E6",
"PC c #71719898C6C6",
"AD c #65658282A6A6",
"BD c #8282A8A8D5D5",
"CD c #7B7B9B9BC3C3",
"DD c #8181A3A3CBCB",
"ED c #8585A2A2C5C5",
"FD c #ADADC2C2DBDB",
"GD c #B1B1C4C4DCDC",
"HD c #A9A9BABACFCF",
"ID c #BFBFCECEE0E0",
"JD c #C6C6D3D3E3E3",
"KD c #C9C9D5D5E4E4",
"LD c #C4C4CFCFDDDD",
"MD c #E7E7ECECF2F2",
"ND c #2C2C7777CDCD",
"OD c #2D2D7575C7C7",
"PD c #2F2F7272C0C0",
"AE c #32327373BDBD",
"BE c #30307070B5B5",
"CE c #3A3A7E7ECBCB",
"DE c #3D3D8383D3D3",
"EE c #3D3D8181CBCB",
"FE c #42428484D0D0",
"GE c #48488C8CD6D6",
"HE c #46468282C3C3",
"IE c #4D4D8888C8C8",
"JE c #53538F8FD5D5",
"KE c #4F4F8888C6C6",
"LE c #4A4A7B7BB4B4",
"ME c #5B5B9797DADA",
"NE c #59599090CCCC",
"OE c #5F5F9797D3D3",
"PE c #6D6DABABEFEF",
"AF c #6A6AA4A4E4E4",
"BF c #66669B9BD7D7",
"CF c #7272ADADEDED",
"DF c #6B6BA1A1DDDD",
"EF c #7676AEAEEEEE",
"FF c #7A7AB4B4F2F2",
"GF c #7A7AB3B3F1F1",
"HF c #7E7EB6B6F2F2",
"IF c #7B7BB0B0EAEA",
"JF c #8585BEBEFBFB",
"KF c #8484BCBCFAFA",
"LF c #8181B7B7F3F3",
"MF c #8585BDBDF9F9",
"NF c #8383B9B9F6F6",
"OF c #8989C1C1FEFE",
"PF c #8787BEBEFAFA",
"AG c #8686BDBDF8F8",
"BG c #8989BFBFFBFB",
"CG c #7373A1A1D3D3",
"DG c #8989BFBFF9F9",
"EG c #8B8BBFBFFAFA",
"FG c #8B8BC0C0FAFA",
"GG c #8F8FC5C5FFFF",
"HG c #8D8DC2C2FCFC",
"IG c #8D8DC1C1FBFB",
"JG c #8F8FC4C4FDFD",
"KG c #7C7CAAAADCDC",
"LG c #6E6E9494BEBE",
"MG c #8989B7B7E9E9",
"NG c #7A7AA1A1CBCB",
"OG c #9898C6C6F8F8",
"PG c #8B8BB3B3E0E0",
"AH c #9C9CC9C9F9F9",
"BH c #9292B5B5DCDC",
"CH c #8282A0A0C2C2",
"DH c #8686A3A3C2C2",
"EH c #9090AEAED0D0",
"FH c #ACACCECEF3F3",
"GH c #9090ACACCBCB",
"HH c #9090ABABCACA",
"IH c #9696AFAFCCCC",
"JH c #A5A5BFBFDBDB",
"KH c #9494ABABC4C4",
"LH c #B2B2C3C3D6D6",
"MH c #39397A7ABCBC",
"NH c #4A4A9191DCDC",
"OH c #5D5DA0A0E7E7",
"PH c #5B5B9C9CDDDD",
"AI c #5E5E9E9EE1E1",
"BI c #5B5B9999D9D9",
"CI c #6464A6A6ECEC",
"DI c #6363A4A4E8E8",
"EI c #6A6AAAAAEEEE",
"FI c #6E6EAEAEEEEE",
"GI c #7575B5B5F8F8",
"HI c #7272B1B1F2F2",
"II c #7474B2B2F2F2",
"JI c #7575B0B0EEEE",
"KI c #7A7AB8B8F6F6",
"LI c #7D7DBABAFAFA",
"MI c #62629292C3C3",
"NI c #8080BFBFFDFD",
"OI c #7E7EB9B9F7F7",
"PI c #7A7AB3B3EEEE",
"AJ c #8484C2C2FFFF",
"BJ c #8181BCBCF9F9",
"CJ c #6E6EA0A0D4D4",
"DJ c #7373A6A6DBDB",
"EJ c #8585BEBEF8F8",
"FJ c #8585BDBDF7F7",
"GJ c #8484BBBBF5F5",
"HJ c #8787BFBFF9F9",
"IJ c #7B7BAFAFE3E3",
"JJ c #8888C0C0F9F9",
"KJ c #8989C0C0FAFA",
"LJ c #8A8AC0C0F9F9",
"MJ c #8C8CC4C4FCFC",
"NJ c #8F8FC6C6FFFF",
"OJ c #8A8ABFBFF6F6",
"PJ c #8888BCBCF3F3",
"AK c #8E8EC2C2F9F9",
"BK c #8D8DC1C1F8F8",
"CK c #8C8CC0C0F7F7",
"DK c #8686B7B7EBEB",
"EK c #8C8CBFBFF4F4",
"FK c #9292C6C6FDFD",
"GK c #8484B3B3E4E4",
"HK c #9595C9C9FDFD",
"IK c #9797CBCBFFFF",
"JK c #9696C9C9FDFD",
"KK c #8C8CBCBCECEC",
"LK c #9696C7C7FAFA",
"MK c #9C9CCDCDFFFF",
"NK c #9494C2C2F2F2",
"OK c #9A9AC9C9FAFA",
"PK c #9B9BC9C9F7F7",
"AL c #8989B0B0D8D8",
"BL c #A0A0CDCDFAFA",
"CL c #78789999BCBC",
"DL c #8989ABABCECE",
"EL c #A5A5CECEF6F6",
"FL c #8686A5A5C5C5",
"GL c #9999B9B9DADA",
"HL c #D1D1DBDBE5E5",
"IL c #DADAE2E2EAEA",
"JL c #E2E2E8E8EEEE",
"KL c #E8E8EAEAECEC",
"LL c #F9F9FAFAFBFB",
"ML c #8181BCBCF4F4",
"NL c #6F6FA0A0CFCF",
"OL c #8C8CC7C7FFFF",
"PL c #8E8EC7C7FCFC",
"AM c #8C8CC3C3F8F8",
"BM c #9191C9C9FFFF",
"CM c #7B7BA9A9D5D5",
"DM c #9696CDCDFFFF",
"EM c #9999CFCFFFFF",
"FM c #9999CDCDFFFF",
"GM c #9B9BCFCFFFFF",
"HM c #9B9BD0D0FFFF",
"IM c #9999CCCCFCFC",
"JM c #9191BDBDE7E7",
"KM c #8282A6A6C6C6",
"LM c #AAAAD4D4FCFC",
"MM c #B2B2D6D6F7F7",
"NM c #9696CCCCFBFB",
"OM c #9999D0D0FFFF",
"PM c #9B9BD2D2FFFF",
"AN c #9F9FD3D3FFFF",
"BN c #A1A1D4D4FFFF",
"CN c #A1A1D2D2FDFD",
"DN c #8383A9A9C8C8",
"EN c #9090B8B8DADA",
"FN c #9E9EC0C0DEDE",
"GN c #9797B4B4CDCD",
"HN c #AFAFCACAE1E1",
"IN c #D2D2DDDDE6E6",
"JN c #9797CACAF2F2",
"KN c #A1A1D7D7FFFF",
"LN c #8686A9A9C5C5",
"MN c #8A8AADADC8C8",
"NN c #7E7EBEBEEAEA",
"ON c #A2A2D9D9FFFF",
"PN c #9A9AC9C9EAEA",
"AO c #7F7FA5A5BFBF",
"BO c #A6A6D0D0EDED",
"CO c #B4B4CCCCDDDD",
"DO c #8686C6C6EFEF",
"EO c #A4A4DBDBFFFF",
"FO c #A7A7DCDCFFFF",
"GO c #A2A2D3D3F1F1",
"HO c #BEBED9D9EAEA",
"IO c #ACACC2C2D0D0",
"JO c #AAAAE0E0FFFF",
"KO c #B2B2C2C2CBCB",
"LO c #EDEDF2F2F5F5",
"MO c #AEAEE3E3FFFF",
"NO c #AFAFE0E0F9F9",
"OO c #B0B0D2D2E3E3",
"PO c #CFCFDDDDE4E4",
"AP c #F1F1F5F5F7F7",
"BP c #F7F7F9F9FAFA",
"CP c #ADADE5E5FFFF",
"DP c #B1B1E7E7FFFF",
"EP c #ABABDDDDF3F3",
"FP c #B7B7D2D2DEDE",
"GP c #C6C6D1D1D6D6",
"HP c #ABABD2D2E2E2",
"IP c #B7B7EBEBFFFF",
"JP c #C2C2DADAE1E1",
"KP c #FBFBFCFCFCFC",
"LP c #FDFDFDFDFDFD",
/* pixels */
"BABABABABABABABABABABABABABABABABABABABABABABABABABABABABABABABA",
"BAAAAAAAAAAAAAAAAAAAAAAAAAAAAAAAAAAAAAAAAAAAAAAAAAAAAAAAAAAAAABA",
"BAAAAAAAAAAAAAAAAAAAAAAAAAAALLMNICBDBDPCEDHLAAAAAAAAAAAAAAAAAABA",
"BAAAAAAAAAAAAAAAAAAAAAAAAALPABEEELBLOKAHDKKELGACAAAAAAAAAAAAAABA",
"BAAAAAAAAAAAAAAAAAAAAAAAAALDODCFOJKNCPJOKNJKAFECLHAAAAAAAAAAAABA",
"BAAAAAAAAAAAAAAAAAAAAAAAAADLOHAGEJPNFPOOGOEOGMEFBCIHAAAAAAAAAABA",
"BAAAAAAAAAAAAAAAAAAAAAAAAACHGIFGAILAAAAANAJHOJHMFFODDBAAAAAAAABA",
"BAAAAAAABPAAAAAAAAAAAAAAAAOBIIEGBIBPAAAAAAAAKDOCHMLFPDKOAAAAAABA",
"BAAALDICCDDDKHKAAAAAAAAAAAIDFIIGAIHLAAAAAAAAAAPONNIKEFAEJLAAAABA",
"BAAAMHAILMBLKKNELBINAAAAAAHBJCGGIICLAAAAAAAAAAAAJDLCJGOHNCAAAABA",
"BAAAGECFCKKNANIMIFJBEDGAAAAAKHLIMFOEGHCDABDAAAAAAAHAOIDGCELAAABA",
"BAAAOEHINMEPEPMOKNBKJELEPOAAIBHCHIOGFHELGEMIAAAAAAFABFHGEICHAABA",
"BAAAEHBMKGLOFBFDKKOMHKAFBEFDAAKBNILJNKPJCINLAAAAAAAADDOIMFHCAABA",
"BAAAEBDMCMAAAAAAJLALMJFMPIPDHHGDMLDMFGNFCIDNAAAAAAAAMBKIFGBIAABA",
"BAAAKPENIJKLAAAAAAAAFDNFOMGJDCFLCOKFIKJKJJNEEDILAPHLNEMFGJPHAABA",
"BAAAAAGPAMMNAAAAAAAAAAOAGKOMCKFCPBGDPIEOIPCNNKPGBDPGCKIGKIBFAABA",
"BAAAAAAAGNDFMAAAAAAAAAAAILKGEMAKFCKMHPBHPNKNHMIMOKLKHMANNIBBAABA",
"BAAAAAAALODOLBAAAPBBIALHAAGBLCEMOJEEDLAAIBJHJMONMOCPDPPLALAPAABA",
"BAAAAAAAAALDGCCLMCGKMMIELBAAGBKGPMGJCCJAAAAALOIDCOHOHNJDLPAAAABA",
"BAAAAAAAAAAAPBDENKPKNKEKDEADAAPAIJHMGFAEEAAAAAAAAAAAAAAAAAAAAABA",
"BAAAAAAAAAKLLEEIHFFJEJAGJINDJAAAEBMLFMDIJBGAAAAAAAAAAAAAAAAAAABA",
"BAAAAAAAAACLNHAGLJHJHJKJDGCIMCAAAAJHOFFKNHAOAAAAAAAAAAAAAAAAAABA",
"BAAAAAAAGAHEHIFGJJHJHJDGAGGILNAAAAAAPBBMNFCCLAAAAAAAAAAAAAAAAABA",
"BAAAAAAAACGEFFDGMFMFPFFKBJCGGBAAAAAAIBCGNJEINCAAAAAAAAAAAAAAAABA",
"BAAAAAAAHBMEBJFKHGFKBNJOAJCDLPAAAAAAAAIOIIIGFEKAAAAAAAAAAAAAAABA",
"BAAAAAAALPMNAJFODPDPEOJMJHGCNGFBAAAAAABPCJBGPEDHAAAAAAAAAAAAAABA",
"BAAAAAAAAAAPGLJNNOPNFNFBAAKDMGDFFDBPAAAANGOIJFMIKPAAAAAAAAAAAABA",
"BAAAAAAAAAAAAALOMDAPAAAAAAAAFAGLJICJCBHDDJHGMFBIGAAAAAAAAAAAAABA",
"BAAAAAAAAAAAAAAAAAAAAAAAAAAAAAAAJDALDGMKMOMOOLKCCAAAAAAAAAAAAABA",
"BAAAAAAAAAAAAAAAAAAAAAAAAAAAAAAAAACAJDNBBOEPJMJPAAAAAAAAAAAAAABA",
"BAAAAAAAAAAAAAAAAAAAAAAAAAAAAAAAAAAAAAAAAAAAAAAAAAAAAAAAAAAAAABA",
"BABABABABABABABABABABABABABABABABABABABABABABABABABABABABABABABA",
};
