/* XPM */
static char *48x48[] =
{
/* width height ncolors chars_per_pixel */
"48 48 253 2",
/* colors */
"AA c #FEFEFEFEFEFE",
"BA c #33339999CCCC",
"CA c #FDFDFDFDFEFE",
"DA c #A9A9B0B0D2D2",
"EA c #C4C4CCCCF0F0",
"FA c #BDBDC3C3DEDE",
"GA c #9C9CACACDFDF",
"HA c #B8B8BEBED2D2",
"IA c #F0F0F2F2F7F7",
"JA c #B8B8C7C7E6E6",
"KA c #F5F5F6F6F8F8",
"LA c #43436E6EBFBF",
"MA c #E1E1E5E5ECEC",
"NA c #AEAEBABACECE",
"OA c #BABAC0C0CACA",
"PA c #C6C6D2D2E3E3",
"AB c #2D2D6868B6B6",
"BB c #6A6A9292C8C8",
"CB c #71719797CACA",
"DB c #67678A8AB8B8",
"EB c #9494B7B7E7E7",
"FB c #81819E9EC5C5",
"GB c #9292ADADD0D0",
"HB c #9797AFAFCECE",
"IB c #A1A1B5B5D1D1",
"JB c #ADADC1C1DBDB",
"KB c #C1C1CECEDFDF",
"LB c #18186363BEBE",
"MB c #1A1A6262B7B7",
"NB c #19195D5DADAD",
"OB c #1C1C54549A9A",
"PB c #22225D5DA5A5",
"AC c #26266363AEAE",
"BC c #31316969AEAE",
"CC c #39396C6CA9A9",
"DC c #45457B7BBDBD",
"EC c #41417171AEAE",
"FC c #47477676AEAE",
"GC c #7575AEAEF3F3",
"HC c #5F5F8E8EC5C5",
"IC c #64649494CDCD",
"JC c #5C5C8484B6B6",
"KC c #60607F7FA4A4",
"LC c #8181A8A8D8D8",
"MC c #9090ACACCECE",
"NC c #9191AAAACACA",
"OC c #87879E9EBBBB",
"PC c #9393ACACCBCB",
"AD c #9999ACACC4C4",
"BD c #A1A1B3B3CACA",
"CD c #AAAAB7B7C7C7",
"DD c #CBCBD5D5E1E1",
"ED c #24246D6DC2C2",
"FD c #2C2C7777CBCB",
"GD c #2A2A7171BDBD",
"HD c #30307373C1C1",
"ID c #35357B7BCCCC",
"JD c #37377E7ECFCF",
"KD c #37377C7CC6C6",
"LD c #39397B7BC8C8",
"MD c #38387676B9B9",
"ND c #43438B8BDADA",
"OD c #41418282CECE",
"PD c #45458787D3D3",
"AE c #4E4E9292DBDB",
"BE c #4D4D8D8DD3D3",
"CE c #48487F7FBFBF",
"DE c #5B5B9F9FE8E8",
"EE c #58589595D6D6",
"FE c #4D4D8181B9B9",
"GE c #6969A7A7EAEA",
"HE c #5C5C9191CDCD",
"IE c #58588C8CC4C4",
"JE c #64649D9DDDDD",
"KE c #6969A1A1E0E0",
"LE c #7272ACACEAEA",
"ME c #7B7BB5B5F6F6",
"NE c #7979B2B2F1F1",
"OE c #7A7AB4B4F2F2",
"PE c #7878B0B0ECEC",
"AF c #8080B8B8F5F5",
"BF c #6C6C9B9BCECE",
"CF c #8383B9B9F4F4",
"DF c #8686BCBCF8F8",
"EF c #8585BBBBF6F6",
"FF c #8888BFBFFAFA",
"GF c #8989BFBFF9F9",
"HF c #8A8ABFBFF9F9",
"IF c #8989BDBDF8F8",
"JF c #8888BDBDF6F6",
"KF c #8B8BC0C0FAFA",
"LF c #8D8DC2C2FBFB",
"MF c #8C8CBFBFF9F9",
"NF c #8989BDBDF5F5",
"OF c #6C6C9494C1C1",
"PF c #8E8EC2C2FBFB",
"AG c #8D8DC1C1FAFA",
"BG c #8B8BBFBFF7F7",
"CG c #7E7EADADE0E0",
"DG c #8E8EC0C0FAFA",
"EG c #8E8EC1C1F9F9",
"FG c #9191C5C5FDFD",
"GG c #9090C2C2FBFB",
"HG c #9191C4C4FBFB",
"IG c #65658787ADAD",
"JG c #8585B2B2E2E2",
"KG c #9393C4C4F9F9",
"LG c #75759A9AC3C3",
"MG c #75759898BFBF",
"NG c #9292B6B6DDDD",
"OG c #9797B4B4D5D5",
"PG c #9B9BB8B8D9D9",
"AH c #A5A5BFBFDCDC",
"BH c #A2A2BABAD4D4",
"CH c #BEBECCCCDCDC",
"DH c #CFCFD9D9E4E4",
"EH c #D4D4DDDDE7E7",
"FH c #CACAD2D2DBDB",
"GH c #DBDBE2E2EAEA",
"HH c #54549999E2E2",
"IH c #4C4C8A8ACACA",
"JH c #5A5A9E9EE6E6",
"KH c #5A5A9D9DE3E3",
"LH c #59599B9BE0E0",
"MH c #5D5D9F9FE4E4",
"NH c #5F5FA2A2E7E7",
"OH c #6363A6A6ECEC",
"PH c #6565A9A9EEEE",
"AI c #6262A0A0E1E1",
"BI c #6565A4A4E6E6",
"CI c #6C6CADADF1F1",
"DI c #6F6FB1B1F3F3",
"EI c #7272B4B4F8F8",
"FI c #6D6DACACEDED",
"GI c #62629B9BD6D6",
"HI c #7171B0B0F1F1",
"II c #6D6DA8A8E6E6",
"JI c #7575B4B4F4F4",
"KI c #67679D9DD6D6",
"LI c #7979B8B8F9F9",
"MI c #7575B2B2F1F1",
"NI c #7171AAAAE6E6",
"OI c #7D7DBBBBFCFC",
"PI c #7777B4B4F1F1",
"AJ c #7575B0B0EBEB",
"BJ c #7C7CB7B7F5F5",
"CJ c #7C7CB6B6F3F3",
"DJ c #8282BFBFFEFE",
"EJ c #7D7DB9B9F4F4",
"FJ c #7A7AB2B2EDED",
"GJ c #8282BDBDFBFB",
"HJ c #8585C2C2FFFF",
"IJ c #8080BABAF6F6",
"JJ c #8080BABAF5F5",
"KJ c #8383BDBDF9F9",
"LJ c #7D7DB3B3ECEC",
"MJ c #8383BBBBF6F6",
"NJ c #7B7BAFAFE6E6",
"OJ c #8282B9B9F2F2",
"PJ c #8181B7B7F0F0",
"AK c #7F7FB5B5EDED",
"BK c #8989C3C3FDFD",
"CK c #8787BFBFF9F9",
"DK c #8B8BC5C5FFFF",
"EK c #8787BDBDF6F6",
"FK c #8585BBBBF2F2",
"GK c #8989BFBFF6F6",
"HK c #8F8FC7C7FFFF",
"IK c #8D8DC1C1F8F8",
"JK c #6A6A9191B9B9",
"KK c #8F8FC2C2F8F8",
"LK c #8D8DBFBFF4F4",
"MK c #9494C9C9FFFF",
"NK c #9292C7C7FBFB",
"OK c #8787B6B6E8E8",
"PK c #9494C8C8FDFD",
"AL c #8D8DBEBEF1F1",
"BL c #9696C9C9FEFE",
"CL c #9898CCCCFFFF",
"DL c #9595C5C5F8F8",
"EL c #9A9ACCCCFFFF",
"FL c #9393C4C4F4F4",
"GL c #9C9CCECEFFFF",
"HL c #9A9AC8C8F7F7",
"IL c #9E9ECBCBF8F8",
"JL c #A0A0CBCBF5F5",
"KL c #A7A7CFCFF7F7",
"LL c #ACACC0C0D5D5",
"ML c #B4B4C6C6D9D9",
"NL c #B1B1C2C2D3D3",
"OL c #DCDCE1E1E6E6",
"PL c #F2F2F5F5F8F8",
"AM c #F2F2F4F4F6F6",
"BM c #FAFAFBFBFCFC",
"CM c #F8F8F9F9FAFA",
"DM c #7373A5A5D3D3",
"EM c #8D8DC7C7FFFF",
"FM c #9292CACAFFFF",
"GM c #9191C7C7FBFB",
"HM c #9494CBCBFFFF",
"IM c #9595CACAFDFD",
"JM c #9797CECEFFFF",
"KM c #9999CFCFFFFF",
"LM c #9A9ACECEFFFF",
"MM c #9D9DD0D0FFFF",
"NM c #9E9EC8C8F0F0",
"OM c #ACACD2D2F6F6",
"PM c #9B9BBEBEDEDE",
"AN c #AFAFD5D5F9F9",
"BN c #B6B6DADAFAFA",
"CN c #9292ACACC4C4",
"DN c #B5B5CACADEDE",
"EN c #C1C1CBCBD4D4",
"FN c #9292CCCCFFFF",
"GN c #9999CFCFFDFD",
"HN c #9B9BD2D2FFFF",
"IN c #8C8CB6B6DBDB",
"JN c #8585AAAACACA",
"KN c #5E5E9393BCBC",
"LN c #65659B9BC4C4",
"MN c #8A8AC4C4F1F1",
"NN c #9494CDCDFAFA",
"ON c #9393CACAF5F5",
"PN c #9D9DD4D4FFFF",
"AO c #A1A1D6D6FFFF",
"BO c #9393BBBBDADA",
"CO c #8E8EB2B2CECE",
"DO c #A4A4C8C8E3E3",
"EO c #ECECF1F1F5F5",
"FO c #EAEAEFEFF3F3",
"GO c #9F9FD8D8FFFF",
"HO c #A3A3D9D9FFFF",
"IO c #A6A6D2D2F0F0",
"JO c #A9A9C6C6DBDB",
"KO c #E6E6ECECF0F0",
"LO c #A7A7DCDCFFFF",
"MO c #ABABDFDFFFFF",
"NO c #B4B4D6D6EBEB",
"OO c #C7C7DBDBE8E8",
"PO c #AEAEE4E4FFFF",
"AP c #F7F7F9F9FAFA",
"BP c #B1B1E7E7FFFF",
"CP c #B6B6D1D1DEDE",
"DP c #B1B1E9E9FBFB",
"EP c #B5B5ECECFFFF",
"FP c #ADADCFCFDADA",
"GP c #D4D4E3E3E8E8",
"HP c #B8B8EFEFFFFF",
"IP c #BBBBF2F2FFFF",
"JP c #ACACD7D7E1E1",
"KP c #FDFDFEFEFEFE",
"LP c #FBFBFCFCFCFC",
"MP c #FDFDFDFDFDFD",
/* pixels */
"BABABABABABABABABABABABABABABABABABABABABABABABABABABABABABABABABABABABABABABABABABABABABABABABA",
"BAAAAAAAAAAAAAAAAAAAAAAAAAAAAAAAAAAAAAAAAAAAAAAAAAAAAAAAAAAAAAAAAAAAAAAAAAAAAAAAAAAAAAAAAAAAAABA",
"BAAAAAAAAAAAAAAAAAAAAAAAAAAAAAAAAAAAAAAAAAAAAAAAAAAAAAAAAAAAAAAAAAAAAAAAAAAAAAAAAAAAAAAAAAAAAABA",
"BAAAAAAAAAAAAAAAAAAAAAAAAAAAAAAAAAAAAAAAAAAAAAAAAAAAAAAAAAAAAAAAAAAAAAAAAAAAAAAAAAAAAAAAAAAAAABA",
"BAAAAAAAAAAAAAAAAAAAAAAAAAAAAAAAAAAAAAAAAAAAAAMLJCFCBBBBJCFBPABMAAAAAAAAAAAAAAAAAAAAAAAAAAAAAABA",
"BAAAAAAAAAAAAAAAAAAAAAAAAAAAAAAAAAAAAAAAAAAMJCNBKIOMANANKLJGCEFCBHCMAAAAAAAAAAAAAAAAAAAAAAAAAABA",
"BAAAAAAAAAAAAAAAAAAAAAAAAAAAAAAAAAAAAAAAAADBLBNIANJLEKJFBGDLILOKMDECDNAAAAAAAAAAAAAAAAAAAAAAAABA",
"BAAAAAAAAAAAAAAAAAAAAAAAAAAAAAAAAAAAAAAADDMBAEFJPJGKAOMOLOPNGMIKBGEENBOFAMAAAAAAAAAAAAAAAAAAAABA",
"BAAAAAAAAAAAAAAAAAAAAAAAAAAAAAAAAAAAAAAAJNNDFIEFDFPNIPDPDPHPHPLOPKGKNIEDECMAAAAAAAAAAAAAAAAAAABA",
"BAAAAAAAAAAAAAAAAAAAAAAAAAAAAAAAAAAAAAAAOFOHAFMFBJAJIBOLGHDNPMONHOGLEGAJFDBCGHAAAAAAAAAAAAAAAABA",
"BAAAAAAAAAAAAAAAAAAAAAAAAAAAAAAAAAAAAAAAOFCIIFEKPHMGKPKPAAAACAPACGDKMMGGPEJDBCOLAAAAAAAAAAAAAABA",
"BAAAAAAAAAAAAAAAAAAAAAAAAAAAAAAAAAAAAAMPLCFIHFEFNHPGAAAAAAAAAAAAPLOGCJJMHGAKJDCCAMAAAAAAAAAAAABA",
"BAAAAAAAAAKACHNAKBKOAAAAAAAAAAAAAAAAAAAAPGOHIFEKOHJNAAAAAAAAAAAAAAAANAMIJMEGFJFDJKMPAAAAAAAAAABA",
"BAAAAAAAGHCCABLCLCJCJCBHKAAAAAAAAAAAAAAAPANHEFHFHIHCMPAAAAAAAAAAAAAAKPFPFJCLJFBILBMLAAAAAAAAAABA",
"BAAAAAAAKNLBNJBNANANOKDCMDJBBMAAAAAAAAAAKAKEGJMFIJODDDAAAAAAAAAAAAAAAAAAMCGJPFCFAEBCKAAAAAAAAABA",
"BAAAAAAAHDAELEALJFEKKKHLCGMDECCHAAAAAAAAAANCOIKFAGHHJCAAIAGHEOAAAAAAAAAAKADMGJBGNEFDADAAAAAAAABA",
"BAAAAAAAPDNHNEEKLOMOAOGMIKLKJEACJKFOAAAAAAOLJEJIEFCFKIOFHCDCPBGAAAAAAAAAAAEABIAFEGMHMDCMAAAAAABA",
"BAAAAAAAHCNHPIPKHPDPHPHPLONKBGLJLDBCKBAAAAAACNKHFIEFKLOMBNNMIDNBKOAAAAAAAAAALGDIAGAFIDENAAAAAABA",
"BAAAAAAAPCLIDFNIJODDMLBONNHOMMPFFKBENBCOAAAAMAIHGECJLKOMJLPJKHJDEHAAAAAAAAAALLNHDFHFJHFBAAAAAABA",
"BAAAAAAAFHKJMKGIAAAAAALPKBLCBKKMPKJFJEMBJKAPJAAIDKIMAGOJOJOEGEBEKOAAAAAAAAAAEHAEEJAGHIIEAAAAAABA",
"BAAAAAAABMLCAOGIKAAAAAAAAAAMIBPEFMCLBGNIEDFCKOLLGEHKKMLFGFOENHIEAAAAAAAAAAAAEHBEEJDGNEBEAAAAAABA",
"BAAAAAAAAANLGOAJFHAAAAAAAAAAAADHCGDKKMEGFJKDBCKOCPHIHKCLPFKFCJBEDBEHAAAAAAAAJNJHMJAGMIAEAAAAAABA",
"BAAAAAAAAACMINGOJKAAAAAAAAAAAAAAFOLCGJKMHGAKODABOLPACIEMELMOMMKGCGHCLGHBBDFBHCBJHFAFGEHEAAAAAABA",
"BAAAAAAAAAAAENPNEEEHAAAAAAAAAAAAAACMMCLIJMHGPJPDOBEHJAKEEMPOHPAOKGKLANKLNMOMKLKFAGAFPHCBKPAAAABA",
"BAAAAAAAAAAAAACOHKIGAAAAAAAAAAAAAAAAAAHBOIKMHGPJPDACFODONEFLMOBPLMHFNFFLHLFLGKELELDKPHDAAAAAAABA",
"BAAAAAAAAAAAAAOLALBINAAAAAAAAAPLKAAAAAAAPCMEJMHGPJODMDEONLOLBHAKJMLOHOGNNKNKHOPOHNOIDMKAAAAAAABA",
"BAAAAAAAAAAAAAAAJPMKIEKOAADHDBIEJCMGKOAAAAEBEJKMNKLJKDLAMPAAAAMABHOKGNPOHPHPEPHOAFLCFOAAAAAAAABA",
"BAAAAAAAAAAAAAAAAAGBGJIGBDABKIBNANIHACDDAAAACNOIKMHGFJFDKCAAAAAAAAEOKBJBDONODOAHDDMPMPAAAAAAAABA",
"BAAAAAAAAAAAAAAAAAEOOFEDHEOMANJLJLFLODNBENAAMPNCOIKMEGNIEDOCAAAAAAAAAAAAAAKPAAAAKPAAAAAAAAAAAABA",
"BAAAAAAAAAAAAAAAAAAAOCNDKELKFKOJOJOJPEJDPBOLAABMOCHJLMHFAIMBFAAAAAAAAAAAAAAAAAAAAAAAAAAAAAAAAABA",
"BAAAAAAAAAAAAAAAAACDEDGEPEAFCKCKFFCKCFBIFDJCAAAACMLCDKCLCFBEABFOAAAAAAAAAAAAAAAAAAAAAAAAAAAAAABA",
"BAAAAAAAAAAAAAAAAMBCNDCJIFFFCKCKCKCKAGAFKHGDMAAAAAEODMFMPKNEIDLNAAAAAAAAAAAAAAAAAAAAAAAAAAAAAABA",
"BAAAAAAAAAAAAAAABDFDGEDFKFCKCKCKFFCKKFMJFINDGHAAAAAAEHLEHMEGGEMBHAAAAAAAAAAAAAAAAAAAAAAAAAAAAABA",
"BAAAAAAAAAAAAAAAOFHHPIHFFFCKCKCKCKCKHFCJEILNAPAAAAAAKPCDLIFGJFAECCKAAAAAAAAAAAAAAAAAAAAAAAAAAABA",
"BAAAAAAAAAAAAACAHENHOEHFFFCKCKCKCKLFFGMIOHOAAAAAAAAAAALPMGHJDGNEFDCDAAAAAAAAAAAAAAAAAAAAAAAAAABA",
"BAAAAAAAAAAAAAMPICNHOEHFCKCKCKFFFGCLHKDEADAAAAAAAAAAAAAAFHGEKJIKLHMDCMAAAAAAAAAAAAAAAAAAAAAAAABA",
"BAAAAAAAAAAAAAAAJNPHFFPKPKFGBLMMMOBPPNCILGIAAAAAAAAAAAAAAAJNDIKFAFFDIBAAAAAAAAAAAAAAAAAAAAAAAABA",
"BAAAAAAAAAAAAAAAENMHDKAOMOPOBPPOHOMNAHEBDIHCDDAAAAAAAAAAKPDHLHAFAGJHFEMPAAAAAAAAAAAAAAAAAAAAAABA",
"BAAAAAAAAAAAAAAAAABHGCHNEPIPBPFNNJNLAAEOOGHKGIMCIAAAAAAAAALPHEMIAGOEKDMAAAAAAAAAAAAAAAAAAAAAAABA",
"BAAAAAAAAAAAAAAAAAAAOOPMDODOPMDNFOAAAAAAAADNALAFICIBEOAAAAAAIEHIAGJJAEMLAAAAAAAAAAAAAAAAAAAAAABA",
"BAAAAAAAAAAAAAAAAAAAAAAABMBMAAAAAAAAAAAAAAAAEHNGKJAJBFGBCDMCIIGFGGCJHHDOAAAAAAAAAAAAAAAAAAAAAABA",
"BAAAAAAAAAAAAAAAAAAAAAAAAAAAAAAAAAAAAAAAAAAAAACACHCGGJPKHLILMOMOMMGJHHMLAAAAAAAAAAAAAAAAAAAAAABA",
"BAAAAAAAAAAAAAAAAAAAAAAAAAAAAAAAAAAAAAAAAAAAAAAAAAAMMLJGGJKMEPHPGODJGIFOAAAAAAAAAAAAAAAAAAAAAABA",
"BAAAAAAAAAAAAAAAAAAAAAAAAAAAAAAAAAAAAAAAAAAAAAAAAAAAAABMDDAHDOIONMNGGPAAAAAAAAAAAAAAAAAAAAAAAABA",
"BAAAAAAAAAAAAAAAAAAAAAAAAAAAAAAAAAAAAAAAAAAAAAAAAAAAAAAAAAAAKPAAAAAAAAAAAAAAAAAAAAAAAAAAAAAAAABA",
"BAAAAAAAAAAAAAAAAAAAAAAAAAAAAAAAAAAAAAAAAAAAAAAAAAAAAAAAAAAAAAAAAAAAAAAAAAAAAAAAAAAAAAAAAAAAAABA",
"BAAAAAAAAAAAAAAAAAAAAAAAAAAAAAAAAAAAAAAAAAAAAAAAAAAAAAAAAAAAAAAAAAAAAAAAAAAAAAAAAAAAAAAAAAAAAABA",
"BABABABABABABABABABABABABABABABABABABABABABABABABABABABABABABABABABABABABABABABABABABABABABABABA",
};
