/* XPM */
static char *magick[] = {
/* columns rows colors chars-per-pixel */
"45 19 118 2",
"   c #111212",
".  c #121719",
"X  c #151c1d",
"o  c #181616",
"O  c #181718",
"+  c #1b1d1c",
"@  c #1f211f",
"#  c #1d2423",
"$  c #1b2728",
"%  c #1e2827",
"&  c #192b29",
"*  c #172933",
"=  c #242625",
"-  c #232d2e",
";  c #242c33",
":  c #212f39",
">  c #282d31",
",  c #2e2e3c",
"<  c #253237",
"1  c #27383c",
"2  c #2b3137",
"3  c #2b343a",
"4  c #312f39",
"5  c #33343f",
"6  c #313a3f",
"7  c #2c3e48",
"8  c #323c43",
"9  c #373e48",
"0  c #393e45",
"q  c #3a3e49",
"w  c #1e465c",
"e  c #1d4b62",
"r  c #244451",
"t  c #264d5c",
"y  c #334145",
"u  c #3b434b",
"i  c #374351",
"p  c #3f4552",
"a  c #3f4b57",
"s  c #3b4c59",
"d  c #3c505f",
"f  c #305c76",
"g  c #286179",
"h  c #434549",
"j  c #43494e",
"k  c #424c54",
"l  c #434e5a",
"z  c #4b4f56",
"x  c #44535e",
"c  c #4c525b",
"v  c #54525c",
"b  c #58555c",
"n  c #415666",
"m  c #425c6f",
"M  c #4e5862",
"N  c #4b5d6c",
"B  c #565660",
"V  c #525964",
"C  c #545f6a",
"Z  c #5e5f6b",
"A  c #4d667a",
"S  c #57616c",
"D  c #5b636c",
"F  c #526270",
"G  c #566a7a",
"H  c #5a6672",
"J  c #5c6d7e",
"K  c #615b63",
"L  c #6b626b",
"P  c #616a73",
"I  c #6e6a70",
"U  c #60707d",
"Y  c #236486",
"T  c #236689",
"R  c #246a8d",
"E  c #256e92",
"W  c #2a6e91",
"Q  c #267096",
"!  c #27749b",
"~  c #2b7195",
"^  c #28779f",
"/  c #297a9e",
"(  c #2a7ba3",
")  c #2a7fa9",
"_  c #56788d",
"`  c #5c7182",
"'  c #627384",
"]  c #617789",
"[  c #657887",
"{  c #697180",
"}  c #6c7e91",
"|  c #737d8d",
" . c #2c82ae",
".. c #2d86b2",
"X. c #2e88b6",
"o. c #2f8cbb",
"O. c #308fbf",
"+. c #3090bf",
"@. c #3193c4",
"#. c #3297c9",
"$. c #3399cc",
"%. c #6b8196",
"&. c #74879b",
"*. c #77899e",
"=. c #798597",
"-. c #7d8a9d",
";. c #7e91a4",
":. c #878b9a",
">. c #828fa5",
",. c #8494aa",
"<. c #8998ae",
"1. c #8f9eb0",
"2. c #959aae",
"3. c #8ea0b3",
"4. c #91a0b4",
"5. c #99a6b7",
"6. c #a5b3c5",
"7. c #b8c2d6",
/* pixels */
"$.$.$.$.$.$.$.$.$.$.$.$.$.$.$.$.$.$.$.$.t i A &.1.6.7.6.%.] N l n s 7 ; ( $.$.$.$.$.$.$.$.",
"$.$.$.$.$.$.$.$.$.$.$.$.$.$.$.$.$.$.$.$.t y N _ ,.1.5.4.} ` N x l i 1 & / #.$.$.$.$.$.$.$.",
"$.$.$.$.$.$.$.$.$.$.$.$.$.$.$.$.$.$.$.$.r < s G *.<.,.,.*.] ` U V 0 : $ ( @.@.#.$.$.$.$.$.",
"$.$.$.$.$.$.$.$.$.$.$.$.$.$.$.$.$.$.$.$.g - 3 l [ &.-.;.} ` G S l , # $ / o.@.@.#.$.$.$.$.",
"$.$.$.$.$.$.$.$.$.$.$.$.$.$.$.$.$.$.$.$.W = > u S :.2.| H M l p 9 ; @ $ E ) X.@.@.$.$.$.$.",
"$.$.$.$.$.$.$.$.$.$.$.$.$.$.$.$.$.$.$.#.W # 3 k U =.>.| ' J G N a 3 X X W ) ..@.@.$.$.$.$.",
"$.$.$.$.$.$.$.$.$.$.$.$.$.$.$.$.$.$.$.#.~ + 2 y M P { H l q 8 2 = O   . E ( ) @.@.$.$.$.$.",
"$.$.$.$.$.$.$.$.$.$.$.$.$.$.$.$.$.$.$.#.E + ; 6 k C H C z j 5 ; = o     T ( ) o.@.$.$.$.$.",
"$.$.$.$.$.$.$.$.$.$.$.$.$.$.$.$.$.$.$.#.~ # 3 u j V P D v h 5 ; $ o   * E ( ) @.@.$.$.$.$.",
"$.$.$.$.$.$.$.$.$.$.$.$.$.$.$.$.$.$.$.$.+.< y a z V S D V z 0 , > +   e E ( ) o.@.$.$.$.$.",
"$.$.$.$.$.$.$.$.$.$.$.$.$.$.$.$.$.$.$.$.@.( , u c V D S v B c h 4 : t R E ( ..@.#.$.$.$.$.",
"$.$.$.$.$.$.$.$.$.$.$.$.$.$.$.$.$.$.$.$.@.O._ I K b K L K L K m f Y T E Q ( ..@.#.$.$.$.$.",
"$.$.$.$.$.$.$.$.$.$.$.$.$.$.$.$.$.$.$.$.@.@...( Q R T T T T T T T R R E ^ ) X.@.$.$.$.$.$.",
"$.$.$.$.$.$.$.$.$.$.$.$.$.$.$.$.$.$.$.$.@.@.X.) ^ E R R R R R R R E E ^ (  .O.@.$.$.$.$.$.",
"$.$.$.$.$.$.$.$.$.$.$.$.$.$.$.$.$.$.$.$.#.@.o...( ^ Q Q Q E Q Q ! ! ( ( ..O.@.#.$.$.$.$.$.",
"$.$.$.$.$.$.$.$.$.$.$.$.$.$.$.$.$.$.$.$.#.@.@.o...) ( ( ( ( ( ( ( )  ...O.@.@.#.$.$.$.$.$.",
"$.$.$.$.$.$.$.$.$.$.$.$.$.$.$.$.$.$.$.$.$.$.@.@.O.X...............o.O.@.@.@.$.$.$.$.$.$.$.",
"$.$.$.$.$.$.$.$.$.$.$.$.$.$.$.$.$.$.$.$.$.$.$.#.@.@.@.@.O.O.O.@.@.@.@.@.#.$.$.$.$.$.$.$.$.",
"$.$.$.$.$.$.$.$.$.$.$.$.$.$.#.$.$.$.$.$.$.$.$.$.#.#.@.#.#.#.@.#.#.#.$.$.$.$.$.$.$.$.$.$.$."
};
