/* XPM */
static char *application_48x48_xpm[] = {
/* columns rows colors chars-per-pixel */
"48 48 6 1",
"  s None c None",
"z c black",
". c green",
"X c red",
"o c yellow",
"O c white",
/* pixels */
"                  X                             ",
"                  X                             ",
"                  X                             ",
"                  X                             ",
"                 X                              ",
"                 X                              ",
"        X        X   XX                         ",
"         X       X  X                           ",
"          X      X  X                           ",
"           X     X X                            ",
"            X    XXX                            ",
"            XX   XX                             ",
"              X  X                              ",
"              X  X                              ",
"              X  X  zzzz                        ",
"               XXXzzOOOOzzz                     ",
"               zzzOOOOOOOOOz                    ",
"             zzzzOOOOOOOOOOOz                   ",
"            zzozOOOOOOOOOOOOz zzz               ",
"           zoozOOOOOOOOOXXOOOzOOOz              ",
"          zooozOOOOOOOOOXXOOOzOOOOz             ",
"         zoooozOOOOOOOOOXXOOOzOOXOz             ",
"        zooooozOOOOOOOOOOOOOOzOOOOz             ",
"        zooooozOOOOOOOOOOOOOOzOOOOz             ",
"       zoooooozOOOOOOOOOOOOOOzOOOOz             ",
"      zoooooooozOOOOOOOOOOOOzzzzzzzz            ",
"      zoooooooozOOOOOOOOOOOzoooooooz            ",
"   zzzoooooozooozOOOOOOOOOzOooOoOOoOzz          ",
"zzzooooooooozoooozzzzzzzzzooOooOooOooOz         ",
"ooooooooooooozooooooooozzoOOoOOoOOoOOoz         ",
"oooooooooooooozoooooooozOoOOoOOoOzzOzzOzzz      ",
"ooooooooooooooozoooooozooOooOooOooOooOooOoz     ",
"zzzooooooooooooozooooozOOoOOoOOoOOoOOoOOoOzz    ",
"   zzzzzoooooooooooooozOOozOoOOoOOoOOoOOoOOoz   ",
"        zooooooooooooozooOzoOooOooOooOooOooOoz  ",
"         zzooooooooooozOOozOoOOoOOoOOoOOoOOoOzz ",
"           zzzoooooooozOOozzzzzzzzzzzzzzzzzzzzz ",
"              zoooooooozoOooOooOooOooOz         ",
"               zzoooooozOoOOoOOoOOoOOoz         ",
"                 zzzzooozzOOoOOoOOozzz          ",
"                     zzzzzzzzzzzzzz             ",
"                                                ",
"                                                ",
"                                                ",
"                                                ",
"                                                ",
"                                                ",
"                                                "
};
