/* XPM */
static char *magick[] = {
/* columns rows colors chars-per-pixel */
"22 21 3 1",
"  c gray0",
". c #333366",
"X c white",
/* pixels */
"......................",
" XXXXXXXXXXXXXXXXXXXX.",
"  XXXXXXXXXXXXXXXXXXX.",
"   XXXXXXXXXXXXXXXXXX.",
"    XXXXXXXXXXXXXXXXX.",
"     X.XXXXXXXXX.XXXX.",
"      XXXXXXXXXX.XXXX.",
"     .XXXXXXXXXX.XXXX.",
"    X.XXXXXXXXXX.XXXX.",
"   XX..XX.XX..XX..XXX.",
"  XXX.XX.X.X.X.X.XXXX.",
" XXXX.XX.X.X.X.X.XXXX.",
".XXXX.XX.X.X.X.X.XXXX.",
".XXXX.XX.X.X.X.X.XXXX.",
".XXXX.XX.X.X.X.X.XXXX.",
".XXXX.XXX.XX.X.XX.XXX.",
".XXXXXXXXXXXXXXXXXXXX.",
".XXXXXXXXXXXXXXXXXXXX.",
".XXXXXXXXXXXXXXXXXXXX.",
".XXXXXXXXXXXXXXXXXXXX.",
"......................"
};
