/* XPM */
static char *magick[] = {
/* columns rows colors chars-per-pixel */
"22 21 3 1",
"  c gray0",
". c #333366",
"X c white",
/* pixels */
"......................",
" XXXXXXXXXXXXXXXXXXXX.",
"  XXXXXXXXXXXXXXXXXXX.",
"   XXXXXXXXXXXXXXXXXX.",
"    XXXXXXXXXXXXXXXXX.",
"     XXXXXXXXX.XXXXXX.",
"      XXXXXXXX.XXXXXX.",
"     XXXXXXXXX.XXXXXX.",
"    .XXXXXXXXX.XXXXXX.",
"   X..XXX.XXX..X.X.XX.",
"  XX.X.X.X.X.X.X.X.XX.",
" XXX.X.X.X.X.X.X.X.XX.",
".XXX.X.X.X.X.X.X.X.XX.",
".XXX.X.X.X.X.X.XX.XXX.",
".XXX..XXX.XXX..XX.XXX.",
".XXXXXXXXXXXXXXX.XXXX.",
".XXXXXXXXXXXXXX.XXXXX.",
".XXXXXXXXXXXXXXXXXXXX.",
".XXXXXXXXXXXXXXXXXXXX.",
".XXXXXXXXXXXXXXXXXXXX.",
"......................"
};
