/* XPM */
static char *magick[] = {
/* columns rows colors chars-per-pixel */
"32 32 7 1",
"  c gray0",
". c #000080",
"X c cyan",
"o s None c None",
"O c #808080",
"+ c #c0c0c0",
"@ c white",
/* pixels */
"oooooooooooooooooooooooooooooooo",
"oooooooooooooOOooOOOOOOOoooooooo",
"ooooooooooooO@@OO@@@@@@@ ooooooo",
"ooooooooooooO@+@@+++++++@ oooooo",
"ooooooooooooO++OO+++++OOO@ ooooo",
"ooooooooooooOOO  OO+OO   O ooooo",
"ooooooooooooO  oo  +  oooo ooooo",
"oooooooooOOoO oooo + ooooooooooo",
"ooooooooO@ oO@ ooo + ooooooooooo",
"oooooooO@+ oO++ oo + ooooooooooo",
"ooooooO@+O o @+O o...ooooooooooo",
"ooooooO@O ooo @O .@@@ oooooooooo",
"ooooooO@O ooo @O .@X. oooooooooo",
"ooooooOO+@ O @+O .@X. oooooooooo",
"ooooooo O+@@@+O o.@X. oooooooooo",
"oooooooo O+@+O  o.@X. oooooooooo",
"oooooooooO@+O ooo.@X. oooooooooo",
"oooooooooO@+O ooo.@X. oooooooooo",
"oooooooooO@+O ooo.@X. oooooooooo",
"oooooooooO@+O ooo.@X. oooooooooo",
"oooooooooO@+O ooo.@X. oooooooooo",
"oooooooooO@+O ooo.@X. oooooooooo",
"oooooooooO@+O ooo.@X. oooooooooo",
"oooooooooO@+O ooo.@X. oooooooooo",
"oooooooooO@+O ooo.@X. oooooooooo",
"oooooooooO@+O ooo.@X. oooooooooo",
"oooooooooO@+O ooo.@X. oooooooooo",
"oooooooooO@+O ooo.@X. oooooooooo",
"oooooooooO@+O ooo.@X. oooooooooo",
"oooooooooO@+O ooo.@X. oooooooooo",
"oooooooooo   ooooo   ooooooooooo",
"oooooooooooooooooooooooooooooooo"
};
