/* XPM */
static char *magick[] = {
/* columns rows colors chars-per-pixel */
"32 32 9 1",
"  c gray0",
". c #000080",
"X c blue",
"o c #008080",
"O c cyan",
"+ s None c None",
"@ c #808080",
"# c #c0c0c0",
"$ c white",
/* pixels */
"++++++++++++++++++++++++++++++++",
"+++++++++++++oooooo++++++++.++++",
"+++++++++++Ooooooooo++++++X.++++",
"++++++++++OOooooooooXo++++X.++++",
"++++++++OOOooooooooXoXX++XX.++++",
"+++++++OOOoOooooooXoXoXo+XX.++++",
"++++++X.OoOooooooooXoXXXXXX.++++",
"++++++..OOoo#$$$# oXXoXXXXX.++++",
"+++++OOO o##O#O#$# +oXoXXXX.++++",
"+++++O++o @@@@oO$# +++XXXXX.++++",
"++++O++oo  oOoOo$# ++XXXXXX.++++",
"++++O++oO O oOoO$# ++XXXXXX.++++",
"++++++ooo oO oO#$@ +oooooXX.++++",
"+++Oo+o#O OoO #$#@ o#$$$# X.++++",
"+++OOoo#o.oOo#$#@ ##O#O#$# .++++",
"+++OOOo$OoOo$$#@@ @@@@oO$# +++++",
"+++OOOOo$$$$#@@@   oOoOo$# X++++",
"+++OOOOOo#@@@@@ O O oOoO$# X++++",
"+++OOOOOOo     @@ oO oO#$@ X++++",
"+++OOOOOOOOo@# @  OoO #$#@ @++++",
"+++OOOOOOO@@###@ .oOo#$#@ @+++++",
"+++OOOOOOOO     OoOo$$#@@ @+++++",
"+++OOOOOOOOo+++o$$$$#@@@ @++++++",
"+++OOOOOOOoOo+++o#@@@@@ X@++++++",
"+++OOOOOOoOooo+++o     @@+++++++",
"+++OOOOOoOoOoooooooo@# @ +++++++",
"+++OO++oOoOoOooooo@@###@ +++++++",
"+++O++++oooOooooooX     ++++++++",
"+++++++++oooooooXXXX@@++++++++++",
"++++++++++oooooXXX@@++++++++++++",
"++++++++++++oooXX@++++++++++++++",
"++++++++++++++++++++++++++++++++"
};
