/* XPM */
static char *magick[] = {
/* columns rows colors chars-per-pixel */
"32 32 9 1",
"  c gray0",
". c #008080",
"X c cyan",
"o s None c None",
"O c #808000",
"+ c yellow",
"@ c #808080",
"# c #c0c1c0",
"$ c white",
/* pixels */
"oooooooooooooooooooooooO+ooooooo",
"oooooooooooooooo.......O+ooooooo",
"ooooooooooooo...#$+$$##O+oooo+oo",
"ooooooooooo..$$$$$O+$$$O+@oo+ooo",
"ooooX.ooo..$$###$##O+#$O+#@++ooo",
"oooo.. o.#$####$#$##O+#++#++oooo",
"ooooo  .######X.X.X.XO+++++ oooo",
"oooooo.        ++++++++$$+++++++",
"ooooo.$  ......OOOOO+++$$++OOOOO",
"oooo.$. . .X.X.X.X.X.X++++O oooo",
"oooo.$. .. .X.X.X.X.X++O+O+ oooo",
"ooo.$.. .X. .X.X.X.X++.O+$O+oooo",
"ooo.$.X ..X. .X.X.X++.XO+#@O+ooo",
"oo.$... .X.X. .X.X.+.X.O+@@ O+oo",
"oo.$..X ..X.X. .X.X.X.#O+@@ oooo",
"oo.$... .X.X.X. .X.X.#$O+@ ooooo",
"oo.$..X...X.X.X.X.X.#$#@@@ ooooo",
"oo.$#..X.X.X.X.X.X.#$#@@@ oooooo",
"ooo.$...X.X.X.X.X.#$#@@@@ oooooo",
"ooo.#$...........$$@@@@@ ooooooo",
"oooo.$$.......#$$@@@@@@ oooooooo",
"oooo.@#$$$$$$$$@@@@@@@ ooooooooo",
"ooooo..@@@@@@@@@@@@@  oooooooooo",
"ooooooo  @@@@@@@@@  @ooooooooooo",
"ooooooooo          #@ooooooooooo",
"ooooooooooooo@@#####@ooooooooooo",
"ooooooooooooo@#$####@ooooooooooo",
"ooooooooooo@@##$####@@ ooooooooo",
"oooooooooo@#$$$######@@ oooooooo",
"ooooooooooo@@#$$$##@@  ooooooooo",
"ooooooooooooo        ooooooooooo",
"oooooooooooooooooooooooooooooooo"
};
