/* XPM */
static char *magick[] = {
/* columns rows colors chars-per-pixel */
"32 32 131 2",
"   c #2f3846",
".  c #333366",
"X  c #32445b",
"o  c #344866",
"O  c #364d69",
"+  c #384960",
"@  c #374e70",
"#  c #395270",
"$  c #3a557c",
"%  c #3e597f",
"&  c #3c5780",
"*  c #3c5985",
"=  c #3f5e8a",
"-  c #3b6080",
";  c #3d6788",
":  c #3f6a8d",
">  c #405d89",
",  c #41648b",
"<  c #406b8f",
"1  c #436393",
"2  c #45669a",
"3  c #426b93",
"4  c #446b9a",
"5  c #43729a",
"6  c #4b769d",
"7  c #5c6f8d",
"8  c #567b99",
"9  c #4576a1",
"0  c #4679a4",
"q  c #4876a7",
"w  c #4c72ad",
"e  c #497ca7",
"r  c #497eab",
"t  c #4c76b8",
"y  c #4f7db5",
"u  c #5072a7",
"i  c #5276ae",
"p  c #5279b4",
"a  c #567fbd",
"s  c #537fc6",
"d  c #4a80ad",
"f  c #4b84b3",
"g  c #4e8bbd",
"h  c #5180aa",
"j  c #5084bd",
"k  c #558dbc",
"l  c #5d8db6",
"z  c #4f84c2",
"x  c #4d8cc1",
"c  c #4f90c5",
"v  c #5187c5",
"b  c #5584cb",
"n  c #528dc2",
"m  c #568ccc",
"M  c #5984c4",
"N  c #5385d1",
"B  c #5988d0",
"V  c #5094ca",
"C  c #5698ce",
"Z  c #5b97ca",
"A  c #5296d0",
"S  c #5599d2",
"D  c #549dda",
"F  c #589ad2",
"G  c #5f9fde",
"H  c #5a95e8",
"J  c #5d9ceb",
"K  c #56a1df",
"L  c #5fa4de",
"P  c #5ba5e2",
"I  c #5da9e7",
"U  c #5babea",
"Y  c #5db0ea",
"T  c #7191c3",
"R  c #7093c8",
"E  c #7299d4",
"W  c #729cdf",
"Q  c #6596e0",
"!  c #639bec",
"~  c #63a5eb",
"^  c #65aaec",
"/  c #6aabec",
"(  c #63b3eb",
")  c #6ab3ec",
"_  c #6ebaec",
"`  c #73a2ea",
"'  c #7bafef",
"]  c #72b6ed",
"[  c #73bbed",
"{  c #6dc1ec",
"}  c #74c2ed",
"|  c #77cbed",
" . c #7ec2ef",
".. c #7bcded",
"X. c #77d2ed",
"o. c #7cd2ee",
"O. c #7bdcee",
"+. c #7fe7ee",
"@. s None c None",
"#. c #8faccc",
"$. c #91aeda",
"%. c #82bbef",
"&. c #8fb2ea",
"*. c #8bb4f1",
"=. c #94bbf2",
"-. c #81c0ef",
";. c #8ccaf0",
":. c #84d5ef",
">. c #89d6ef",
",. c #8ed4f0",
"<. c #8cdcf0",
"1. c #9cc3f3",
"2. c #98cff2",
"3. c #97d0f1",
"4. c #91ddf0",
"5. c #9fdbf2",
"6. c #83e4ef",
"7. c #86e9ef",
"8. c #8cebf0",
"9. c #94eef1",
"0. c #9de3f2",
"q. c #99eff1",
"w. c #9cf0f2",
"e. c #a5c9f4",
"r. c #a8c7f4",
"t. c #a1d9f3",
"y. c #a5f1f3",
"u. c #b6f4f5",
"i. c #bef5f6",
"p. c #d0f4f9",
"a. c white",
/* pixels */
"@.@.@.@.@.@.@.@.@.@.@.@.@.@.@.@.@.@.@.@.@.@.@.@.@.@.@.@.@.@.@.@.",
"@.@.@.@.@.@.@.@.@.@.@.@.@.@.@.@.. . . . . . . . . . . . . . . @.",
"@.@.@.@.@.@.@.@.@.@.@.@.@.@.@.j . a.a.a.a.a.a.a.a.a.a.a.a.a.. @.",
"@.@.@.@.@.@.@.@.@.@.@.@.@.@.Q z . a.a.a.a.a.a.a.a.a.a.a.a.a.. @.",
"@.@.@.@.@.@.@.@.@.@.@.1. .{ z 5 . a.a.. . a.a.a.a.a.a.a.a.a.. @.",
"@.@.@.@.@.@.@.e.;.| +.9.6.) : 0 . a.. . . . a.a.a.a.a.a.a.a.. @.",
"@.s [ ,.2.:.7.9.y.i.@.@.) < 5 d . a.. . . . a.. a.. . . . a.. @.",
"@.N <./ ^ | 5.@.@.@.@.-.j 3 9 f . a.a.. . a.a.a.a.a.a.a.a.a.. @.",
"@.1 / y $ * 2 p R $.&./ , 5 r f . a.a.a.a.a.a.a.a.a.a.a.a.a.. @.",
"@.@.W 8.@.@.@.7 & * 2 t b B m m . a.a.. . a.a.a.a.a.a.a.a.a.. @.",
"@.@.@.} p.@.@.@.@.*.p $ $ & 2 p . a.. a.a.. a.a.a.a.a.a.a.a.. @.",
"@.@.@.! u.@.@.@.@.>.5 5 9 5 3 1 . a.. a.a.. a.. a.. . . . a.. @.",
"@.@.@.T 9.@.@.@.@.} < 9 e r e w . a.a.. . a.a.a.a.a.a.a.a.a.. @.",
"@.@.@.@.o.@.@.@.4.r 9 r d r 4 M . a.a.a.a.a.a.a.a.a.a.a.a.a.. @.",
"@.@.@.@.~ i.@.@...5 r d d 9 1 M . a.a.a.a.a.a.a.a.a.a.a.a.a.. @.",
"@.@.@.@.E y.@.t.^ f g f r , u M . . . . . . . . . . . . . . . @.",
"@.@.@.@.@.8.@.o.d V k f 5 > i G ( ( U U U K K @.@.@.@.@.@.@.@.@.",
"@.@.@.@.@.} 0.{ c P k r % 1 y P I I P P D V l @.@.@.@.@.@.@.@.@.",
"@.@.@.@.@.` +.( U L k , & 2 n C S S A V x l @.@.@.@.@.@.@.@.@.@.",
"@.@.@.@.@.@.O.( U Z 6 @ > q g x x x g f e @.@.@.@.@.@.@.@.@.@.@.",
"@.@.@.@.@.@._ ( F i O $ 3 f f f f f r 9 @.@.@.@.@.@.@.@.@.@.@.@.",
"@.@.@.@.@.@.~ ( f O @ , 0 d f d d 0 9 #.@.@.@.@.@.@.@.@.@.@.@.@.",
"@.@.@.@.@.@.b B X o $ 5 9 9 9 9 5 m ^ r.@.@.@.@.@.@.@.@.@.@.@.@.",
"@.@.@.@.@.@.@.  X # % ; : : 8 8 H } [ 1.@.@.@.@.@.@.@.@.@.@.@.@.",
"@.@.@.@.@.@.@.@.@.@.@.@.@.@.@.@.~ } ] =.@.@.@.@.@.@.@.@.@.@.@.@.",
"@.@.@.@.@.@.@.@.@.@.@.@.@.@.@.@.~ } ] *.@.@.@.@.@.@.@.@.@.@.@.@.",
"@.@.@.@.@.@.@.@.@.@.@.@.@.@.@.] I [ _ ] @.@.@.@.@.@.@.@.@.@.@.@.",
"@.@.@.@.@.@.@.@.@.@.@.@.@.@.%.7.9.q.9.6.3.@.@.@.@.@.@.@.@.@.@.@.",
"@.@.@.@.@.@.@.@.@.@.@.@.@.@.J ..8.q.9.o.) @.@.@.@.@.@.@.@.@.@.@.",
"@.@.@.@.@.@.@.@.@.@.@.@.@.@.B ^ _ o.:._ J @.@.@.@.@.@.@.@.@.@.@.",
"@.@.@.@.@.@.@.@.@.@.@.@.@.@.@.' / ] [ ' @.@.@.@.@.@.@.@.@.@.@.@.",
"@.@.@.@.@.@.@.@.@.@.@.@.@.@.@.@.@.@.@.@.@.@.@.@.@.@.@.@.@.@.@.@."
};
